<?xml version="1.0" standalone="no"?>
<!DOCTYPE svg PUBLIC "-//W3C//DTD SVG 1.1//EN" "http://www.w3.org/Graphics/SVG/1.1/DTD/svg11.dtd">
<svg xmlns="http://www.w3.org/2000/svg">
<metadata>Generated by Fontastic.me</metadata>
<defs>
<font id="untitled-font-3" horiz-adv-x="512">
<font-face font-family="untitled-font-3" units-per-em="512" ascent="480" descent="-32"/>
<missing-glyph horiz-adv-x="512" />

<glyph glyph-name="address-book" unicode="&#97;" d="M416 351c5 0 10 4 10 10l0 30c0 6-5 10-10 10l-24 0 0 9c0 9-7 16-16 16l-274 0c-9 0-16-7-16-16l0-308c0-9 7-16 16-16l274 0c9 0 16 7 16 16l0 9 24 0c5 0 10 5 10 10l0 30c0 6-5 11-10 11l-24 0 0 29 24 0c5 0 10 4 10 10l0 30c0 6-5 11-10 11l-24 0 0 29 24 0c5 0 10 4 10 10l0 30c0 6-5 10-10 10l-24 0 0 30 24 0z m-97-165c0-6-4-11-9-11l-142 0c-5 0-10 5-10 11l0 44c0 4 3 8 6 10l56 26c-13 8-22 24-22 42 0 27 18 48 41 48 23 0 41-21 41-48 0-18-9-34-21-42l55-26c3-2 5-6 5-10l0-44z"/>
<glyph glyph-name="alert" unicode="&#98;" d="M467 95l0 0-1 2c0 0-1 1-1 2l-193 334c-3 5-9 9-16 9-8 0-14-4-17-11l0 0-191-331 0 0c-3-4-4-8-4-12 0-10 8-18 18-18l388 0c10 0 18 8 18 18 0 3 0 5-1 7z m-211 9c-15 0-26 12-26 27 0 14 11 26 26 26 15 0 26-12 26-26 0-15-11-27-26-27z m26 233l0-145 0 0c0 0 0 0 0 0 0-6-4-11-10-11 0 0 0 0 0 0l0 0-32 0c-6 0-10 5-10 11 0 0 0 0 0 0l0 0 0 144c0 0 0 1 0 1 0 5 4 10 9 10l0 0 33 0 0 0c6 0 10-4 10-10l0 0 0 0c0 0 0 0 0 0z"/>
<glyph glyph-name="align-center" unicode="&#99;" d="M416 434l-320 0c-10 0-17-7-17-17l0-16c0-10 7-17 17-17l320 0c10 0 17 7 17 17l0 16c0 10-7 17-17 17z m-26-135l0 16c0 10-8 17-17 17l-234 0c-9 0-17-7-17-17l0-16c0-10 8-17 17-17l234 0c9 0 17 7 17 17z m8-171l-284 0c-10 0-18-7-18-17l0-16c0-10 8-17 18-17l284 0c10 0 18 7 18 17l0 0 0 16 0 0c0 10-8 17-18 17z m-25 85c0 10-8 17-18 17l-198 0c-10 0-18-7-18-17l0-16c0-10 8-17 18-17l198 0c10 0 18 7 18 17 0 0 0 0 0 0z"/>
<glyph glyph-name="align-justify" unicode="&#100;" d="M416 433l-320 0c-10 0-17-8-17-17l0-16c0-10 7-18 17-18l320 0c10 0 17 8 17 18l0 16c0 9-7 17-17 17z m0-101l-320 0c-10 0-17-8-17-17l0-16c0-10 7-18 17-18l320 0c10 0 17 8 17 18l0 16c0 9-7 17-17 17z m0-101l-320 0c-10 0-17-8-17-18l0-16c0-9 7-17 17-17l320 0c10 0 17 8 17 17l0 16c0 10-7 18-17 18z m0-101l-320 0c-10 0-17-8-17-18l0-16c0-9 7-17 17-17l320 0c10 0 17 8 17 17l0 16c0 10-7 18-17 18z"/>
<glyph glyph-name="align-left" unicode="&#101;" d="M416 434l-320 0c-10 0-17-7-17-17l0-16c0-10 7-17 17-17l320 0c10 0 17 7 17 17l0 16c0 10-7 17-17 17z m-320-152l234 0c9 0 17 7 17 17l0 16c0 10-8 18-17 18l-234 0c-10 0-17-8-17-18l0-16c0-10 7-17 17-17z m285-154l-285 0c-10 0-17-7-17-17l0-16c0-10 7-17 17-17l285 0c10 0 17 7 17 17l0 0 0 16 0 0c0 10-7 17-17 17z m-285 52l199 0c9 0 17 7 17 17 0 0 0 0 0 0l0 16c0 10-8 17-17 17l-199 0c-10 0-17-7-17-17l0-16c0-10 7-17 17-17z"/>
<glyph glyph-name="align-right" unicode="&#102;" d="M416 434l-320 0c-10 0-17-7-17-17l0-16c0-10 7-17 17-17l320 0c10 0 17 7 17 17l0 16c0 10-7 17-17 17z m0-102l-234 0c-9 0-17-7-17-17l0-16c0-10 8-17 17-17l234 0c10 0 17 7 17 17l0 16c0 10-7 17-17 17z m0-204l-285 0c-10 0-17-7-17-17l0-16c0-10 7-17 17-17l285 0c9 0 17 7 17 17l0 0 0 16 0 0c0 10-8 17-17 17z m17 85c0 10-7 17-17 17l-199 0c-9 0-17-7-17-17l0-16c0-10 8-17 17-17l199 0c10 0 17 7 17 17 0 0 0 0 0 0z"/>
<glyph glyph-name="anchor" unicode="&#103;" d="M452 168l0 0-49 84 0 0c-1 2-4 4-7 4-3 0-6-2-7-5l-47-82c-1-1-2-3-2-5 0-4 4-8 8-8l12 0c-20-22-47-38-79-44l0 150 47 0c4 0 8 3 8 8l0 0 0 35c0 0 0 0 0 0 0 4-4 8-8 8l-47 0 0 27c20 10 34 30 34 54 0 32-26 59-59 59-33 0-59-27-59-59 0-24 14-44 34-54l0-27-47 0c0 0 0 0 0 0-4 0-8-4-8-8l0 0 0-35 0 0c0-5 4-8 8-8l47 0 0-150c-32 6-59 22-79 44l12 0c4 0 8 4 8 8 0 2-1 3-1 4l0 0-48 84 0 0c-2 2-4 4-7 4-4 0-7-2-8-5l-47-82c-1-1-2-3-2-5 0-4 4-8 8-8l22 0c33-58 95-97 167-97 72 0 134 39 167 97l22 0c4 0 8 4 8 8 0 2-1 3-1 4z m-196 192c-18 0-33 15-33 34 0 18 15 33 33 33 18 0 33-15 33-33 0-19-15-34-33-34z"/>
<glyph glyph-name="annotate" unicode="&#104;" d="M422 162l0 188c17 9 28 27 28 47 0 30-24 54-53 54-18 0-35-10-44-24l-194 0c-9 14-26 24-44 24-29 0-53-24-53-54 0-20 11-38 28-47l0-188c-17-9-28-27-28-47 0-30 24-54 53-54 23 0 42 14 50 34l182 0c8-20 27-34 50-34 29 0 53 24 53 54 0 20-11 38-28 47z m-281 0l0 188c10 6 19 15 23 26l184 0c4-11 13-20 23-26l0-188c-7-4-13-10-18-16l-194 0c-5 6-11 12-18 16z"/>
<glyph glyph-name="arrow-down" unicode="&#105;" d="M113 252l133-187c2-3 6-5 10-5 0 0 0 0 0 0 5 0 9 2 11 5l132 187c3 4 4 9 1 13-2 4-6 7-11 7l-62 0 0 167c0 8-6 13-13 13l-116 0c-7 0-13-5-13-13l0-167-62 0c-5 0-9-3-11-7-3-4-2-10 1-13z"/>
<glyph glyph-name="arrow-left" unicode="&#106;" d="M252 399l-187-133c-3-2-5-6-5-10 0 0 0 0 0 0 0-5 2-9 5-11l187-132c4-3 9-4 13-1 4 2 7 6 7 11l0 62 167 0c8 0 13 6 13 13l0 116c0 7-5 13-13 13l-167 0 0 62c0 5-3 9-7 11-4 3-10 2-13-1z"/>
<glyph glyph-name="arrow-right" unicode="&#107;" d="M260 113l187 133c3 2 5 6 5 10 0 0 0 0 0 0 0 5-2 9-5 11l-187 132c-4 3-9 4-13 1-4-2-7-6-7-11l0-62-167 0c-8 0-13-6-13-13l0-116c0-7 5-13 13-13l167 0 0-62c0-5 3-9 7-11 4-3 10-2 13 1z"/>
<glyph glyph-name="arrow-up" unicode="&#108;" d="M399 260l-133 187c-2 3-6 5-10 5 0 0 0 0 0 0-5 0-9-2-11-5l-132-187c-3-4-4-9-1-13 2-4 6-7 11-7l62 0 0-167c0-8 6-13 13-13l116 0c7 0 13 5 13 13l0 167 62 0c5 0 9 3 11 7 3 4 2 10-1 13z"/>
<glyph glyph-name="arrows-compress" unicode="&#109;" d="M201 59l26 158c0 3-1 6-3 8 0 0 0 0 0 0-2 2-5 3-8 2l-157-26c-3-1-6-3-7-7-1-3 0-6 2-9l31-30-82-83c-4-3-4-9 0-13l56-56c4-4 10-4 13 0l83 82 30-31c3-2 6-3 9-2 4 1 6 4 7 7z m110 394l-26-158c0-3 1-6 3-8 0 0 0 0 0 0 2-2 5-3 8-2l157 26c3 1 6 3 7 7 1 3 0 6-2 9l-31 30 82 83c4 3 4 9 0 13l-56 56c-4 4-10 4-13 0l-83-82-30 31c-3 2-6 3-9 2-4-1-6-4-7-7z"/>
<glyph glyph-name="arrows-expand" unicode="&#110;" d="M26 168l-26-158c0-2 1-5 3-7 0 0 0 0 0 0 2-2 5-3 7-3l158 27c3 0 6 3 7 6 1 3 0 7-3 9l-30 31 82 82c4 4 4 9 0 13l-57 57c-3 3-9 3-12 0l-83-83-31 31c-2 2-5 3-9 2-3-1-5-4-6-7z m460 176l26 158c0 2-1 5-3 7 0 0 0 0 0 0-2 2-5 3-7 3l-158-27c-3 0-6-3-7-6-1-3 0-7 3-9l30-31-82-82c-4-4-4-9 0-13l57-57c3-3 9-3 12 0l83 83 31-31c2-2 5-3 9-2 3 1 5 4 6 7z"/>
<glyph glyph-name="arrows-in" unicode="&#111;" d="M184 54l24 145c1 3 0 5-2 7 0 0 0 0 0 0-2 2-5 3-7 3l-145-25c-3 0-5-2-6-5-1-3 0-7 2-9l28-28-76-76c-3-3-3-8 0-11l53-53c3-3 8-3 11 0l76 76 28-28c3-2 6-3 9-2 3 1 5 3 5 6z m144 404l-24-145c-1-3 0-5 2-7 0 0 0 0 0 0 2-2 5-3 7-3l145 25c3 0 5 2 6 5 1 3 0 7-2 9l-28 28 76 76c3 3 3 8 0 11l-53 53c-3 3-8 3-11 0l-76-76-28 28c-3 2-6 3-9 2-3-1-5-3-5-6z m130-274l-145 24c-3 1-5 0-7-2 0 0 0 0 0 0-2-2-3-5-3-7l25-145c0-3 2-5 5-6 3-1 7 0 9 2l28 28 76-76c3-3 8-3 11 0l53 53c3 3 3 8 0 11l-76 76 28 28c2 3 3 6 2 9-1 3-3 5-6 5z m-404 144l145-24c3-1 5 0 7 2 0 0 0 0 0 0 2 2 3 5 3 7l-25 145c0 3-2 5-5 6-3 1-6 0-9-2l-28-28-76 76c-3 3-8 3-11 0l-53-53c-3-3-3-8 0-11l76-76-28-28c-2-3-3-6-2-9 1-3 3-5 6-5z"/>
<glyph glyph-name="arrows-out" unicode="&#112;" d="M24 154l-24-144c0-3 1-6 2-8 0 0 0 0 0 0 2-1 5-2 8-2l144 25c3 0 6 2 6 5 1 3 1 6-2 8l-28 29 76 75c3 4 3 9 0 12l-52 52c-3 4-9 4-12 0l-76-75-28 28c-2 2-5 3-8 2-3-1-5-4-6-7z m464 204l24 144c0 3-1 6-2 8 0 0 0 0 0 0-2 1-5 2-8 2l-144-25c-3 0-6-2-6-5-1-3-1-6 2-8l28-29-76-75c-3-4-3-9 0-12l52-52c3-4 9-4 12 0l76 75 28-28c2-2 5-3 8-2 3 1 5 4 6 7z m-130-334l144-24c3 0 6 1 8 2 0 0 0 0 0 0 1 2 2 5 2 8l-25 144c0 3-2 6-5 6-3 1-6 1-8-2l-29-28-75 76c-4 3-9 3-12 0l-52-52c-4-3-4-9 0-12l75-76-28-28c-2-2-3-5-2-8 1-3 4-5 7-6z m-204 464l-144 24c-3 0-6-1-8-2 0 0 0 0 0 0-1-2-2-5-2-8l25-144c0-3 2-6 5-6 3-1 6-1 8 2l29 28 75-76c4-3 9-3 12 0l52 52c4 3 4 9 0 12l-75 76 28 28c2 2 3 5 2 8-1 3-4 5-7 6z"/>
<glyph glyph-name="asl" unicode="&#113;" d="M130 379c2 1 4 2 5 3 17 15 36 27 58 34 12 3 24 4 36 5 2 0 5-2 6-4 1-2 1-6-1-8-2-3-6-5-10-6-15-5-29-9-44-14-3-1-6-5-9-8-7-5-14-11-21-16-1-1-3-2-4-3 1-1 1-1 1-1 4 1 7 3 11 4 12 4 23 9 35 11 10 2 21-1 32-2 3 0 5-2 7-4 8-6 16-12 23-19 3-2 3-4 1-7-5-6-11-8-18-4-5 3-10 7-15 11-3 3-6 3-9 3-7-1-15-1-22-2-2 0-5-1-7-2-10-7-20-14-30-22-2-1-2-4-3-7 1 0 2 1 3 1 8 6 17 6 26 7 3 1 6 1 9 1 11 2 20-3 29-10 7-5 14-11 21-16 4-3 6-8 6-13 0-9 1-18-3-27 0-1 0-3 0-3 6-5 2-9 1-13-3-9-7-18-11-27-3-8-8-14-17-16-21-6-42-13-62-20-9-3-17-4-26-2-17 4-34 2-50-5-7-3-14-7-22-11-9 13-14 27-17 41-4 17-4 34-2 52 0 1 2 3 3 4 17 7 25 21 30 37 7 19 10 40 22 57 13 19 23 39 40 55 9 8 15 18 23 27 3 4 5 4 8-1 3-5 3-10-2-16-10-13-20-26-30-39-1-1-1-3-2-4 0-1 0-1 1-1z m73-145c4 0 8-1 10 3 4 9 10 16 18 22 2 2 2 3 1 5-4 7-7 15-11 21-1 2-2 4-4 5-6 4-13 8-19 12-2 1-5 1-7 1-4-2-9-5-14-7-5-2-9-3-14-5-10-4-13-14-16-23-2-7 0-11 4-16 6-6 12-13 17-20 2-2 4-2 6-1 10 3 20 5 29 3z m178-101c-3-2-6-5-10-7-15-14-33-24-52-30-11-3-24-4-35-6-7 0-11 7-7 12 3 3 7 6 11 8 13 4 26 7 38 11 5 2 9 5 13 8 8 6 16 12 23 19 2 0 3 1 3 4-4-2-8-4-13-6-11-4-21-9-32-10-11-2-22 1-33 2-2 0-5 2-7 4-7 5-14 10-20 16-7 5-6 12 3 15 3 1 8 1 11-1 6-3 11-8 17-12 2-1 4-2 6-2 7 0 15 1 22 2 4 0 7 1 10 3 10 7 19 14 28 21 2 1 2 4 3 7-12-8-25-8-39-9-9-1-16 1-23 7-9 7-19 14-28 21-2 2-4 6-4 8 0 9 1 18 2 27 1 3 2 6-1 9-1 0-1 3 0 4 1 4 2 7 4 11 2 7 5 13 7 20 3 9 9 15 19 18 21 6 41 13 62 20 8 3 16 4 26 2 17-5 35-2 51 6 7 3 13 6 20 10 7-10 11-20 15-32 6-20 6-40 4-61 0-4-4-5-7-6-10-4-16-12-21-22-4-10-8-21-11-32-5-15-10-29-19-43-7-10-13-20-20-30-6-8-13-15-19-23-7-8-14-16-21-24-3-4-5-4-8 1-4 5-3 10 2 16 10 13 20 26 30 38 1 2 1 4 2 5-1 1-1 1-2 1z m-101 117c4-8 7-16 11-24 0-2 2-3 4-4 6-4 13-8 19-12 2-2 4-2 7-1 7 4 15 7 23 9 7 3 14 7 17 15 2 4 3 9 4 13 1 5 1 9-3 13-7 7-12 14-19 21-1 1-3 2-4 1-11-3-22-5-33-3-2 0-6-1-7-3-7-8-13-17-19-25z"/>
<glyph glyph-name="asterisk" unicode="&#114;" d="M422 204c0 0 0 1 0 1l0 0-88 51 89 51 0 0c4 3 6 10 3 14 0 0 0 1 0 1l0 0-28 49 0 0c-3 4-9 6-14 3l0 0-89-51 0 103 0 0c0 6-5 10-11 10 0 0 0 0 0 0l0 0-56 0 0 0c-6 0-10-5-10-10l0 0 0-103-90 52 0 0c-5 2-11 0-14-4 0 0 0-1 0-1l0 0-28-49 0 0c-3-4-1-10 4-13l0 0 0 0c0 0 0 0 0 0 0 0 0-1 0-1l89-51-87-50c-1-1-2-1-2-1-5-3-7-9-4-14l0 0 29-51 0 0c3-4 9-5 13-2 0 0 0 0 0 0l1 0 89 51 0-100c-1-1-1-2-1-3 0-5 5-10 10-10l0 0 59 0 0 0c5 1 8 5 8 10 0 0 0 0 0 0l1 0 0 103 87-50c0-1 1-1 2-1 4-3 11-2 14 3l0 0 28 49c0 0 0 0 0 0 0 0 0 0 0 0l1 2 0 0c1 5 0 10-5 12z"/>
<glyph glyph-name="at-sign" unicode="&#115;" d="M448 256c0 106-86 192-192 192-106 0-192-86-192-192 0-106 86-192 192-192 34 0 66 9 94 25 3 1 5 4 5 7 0 3-2 6-4 7l0 0-34 21 0 0c-1 1-3 2-5 2-1 0-2 0-3-1l0 0c-17-6-34-10-53-10-78 0-141 63-141 141 0 78 63 141 141 141 73 0 134-56 140-128 0-51-22-80-39-80-10 0-17 7-17 21 0 2 1 8 1 11l22 101-1 0c0 1 1 1 1 2 0 3-3 6-7 6l-37 0c-4 0-6-2-7-5l0 0-4-18c-9 17-28 30-56 30-52 0-102-50-102-111 0-43 26-75 70-75 24 0 49 14 65 36l0-3c4-17 51-39 78-39 39 0 85 27 85 102l0 0c0 3 0 6 0 9z m-158-35c-10-14-26-30-50-30-23 0-37 16-37 40 0 33 26 65 62 65 20 0 32-13 36-23z"/>
<glyph glyph-name="background-color" unicode="&#116;" d="M194 117l-18-45 168 0-17 45z m14 45l104 0-52 138z m196 278l-296 0c-20 0-36-16-36-36l0-296c0-20 16-36 36-36l10 0 107 270c2 5 7 9 13 9l45 0c6 0 11-4 12-9l0 0 107-270 2 0c20 0 36 16 36 36l0 296c0 20-16 36-36 36z"/>
<glyph glyph-name="battery-empty" unicode="&#117;" d="M489 300l-40 0 0 87c0 5-4 9-8 9l-418 0c-5 0-9-4-9-9l0-262c0-5 4-9 9-9l418 0c4 0 8 4 8 9l0 95 40 0c5 0 9 4 9 9l0 62c0 5-4 9-9 9z m-91-133l-332 0 0 177 332 0z"/>
<glyph glyph-name="battery-full" unicode="&#118;" d="M489 300l-40 0 0 87c0 5-4 9-8 9l-418 0c-5 0-9-4-9-9l0-262c0-5 4-9 9-9l418 0c4 0 8 4 8 9l0 95 40 0c5 0 9 4 9 9l0 62c0 5-4 9-9 9z m-91-133l-332 0 0 177 332 0z m-307 154l282 0 0-129-282 0z"/>
<glyph glyph-name="battery-half" unicode="&#119;" d="M489 300l-40 0 0 87c0 5-4 9-8 9l-418 0c-5 0-9-4-9-9l0-262c0-5 4-9 9-9l418 0c4 0 8 4 8 9l0 95 40 0c5 0 9 4 9 9l0 62c0 5-4 9-9 9z m-91-133l-332 0 0 177 332 0z m-108 152l-199 0 0-126 149 0z"/>
<glyph glyph-name="bitcoin" unicode="&#120;" d="M339 269c19 10 31 27 28 55-4 38-37 51-79 54l0 47c0 0 0 0 0 0 0 4-3 7-6 7l-20 0c-3 0-6-3-6-7l0 0 0-45c-9 0-17 0-26-1l0 46c0 0 0 0 0 0 0 4-3 7-6 7l-20 0c-3 0-6-3-6-7 0 0 0 0 0 0l0 0 0-47c-7 0-14 0-21 0l0 0-45 0 0 0c-3 0-6-3-6-6l0-22c0-3 3-6 6-6 0 0 0 0 0 0l0 0c0 0 24 0 24 0 13 0 17-8 19-14l0-61 0 0 0-85c-1-4-3-11-13-11 1 0-23 0-23 0l0 0c0 0 0 0 0 0-3 0-6-2-6-5l-1 0-6-27 1 0c0 0-1 0-1 0 0-4 3-6 6-7l0 0 43 0c7 0 15 0 23 0l0-47 0 0c0-4 3-7 6-7l20 0c3 0 6 3 6 7l0 0 0 47c9-1 18-1 26-1l0-46 0 0c0-4 3-7 6-7l20 0c3 0 6 3 6 7 0 0 0 0 0 0l0 0 0 47c55 3 93 17 98 68 3 41-16 60-47 67z m-108 72c18 0 75 6 76-32 0-37-58-32-76-32z m0-168l0 71c22 0 91 6 91-36 0-40-69-35-91-35z"/>
<glyph glyph-name="bitcoin-circle" unicode="&#121;" d="M255 317l-10-42c11-3 48-15 54 9 6 25-32 30-44 33z m-16-63l-11-47c14-3 58-17 64 9 7 27-38 34-53 38z m63 188c-102 26-207-37-232-140-26-102 37-207 140-232 102-26 207 37 232 140 26 102-37 207-140 232z m39-159c-3-18-14-27-27-31 19-9 28-25 19-51-11-32-38-35-74-28l-9-35-21 5 9 35c-6 1-11 2-17 4l-9-35-21 6 9 35c-5 1-10 2-15 4l-28 6 11 24c0 0 15-4 15-3 6-2 9 2 10 5l14 55c0 0 1 0 2-1-1 1-2 1-2 1l9 39c1 5-1 11-9 13 0 0-16 4-16 4l6 22 29-7 0 0c4-1 9-2 13-4l9 35 21-5-8-34c5-1 11-3 17-4l8 34 21-6-9-34c27-9 46-23 43-49z"/>
<glyph glyph-name="blind" unicode="&#122;" d="M249 411c0-20-16-37-36-37-21 0-37 17-37 37 0 20 16 36 37 36 20 0 36-16 36-36z m177-332l0 0-107 186c2 2 3 5 3 9 0 6-4 12-10 14l-31 18-47 47c-6 8-17 13-28 13-11 0-20-4-27-11l-54-55 0 0c-1 0-1-1-1-3 0 0 0 0 0 0l0 0 0-62c0 0 0 0 0 0 0-8 6-15 15-15 8 0 15 7 15 15 0 0 0 0 0 0l0 52 19 18 0-96 0 0-36-62-45-45 0 0c-4-4-7-10-7-16 0-12 10-21 22-21 6 0 12 3 16 8l49 49 0 0 42 72 36-37 47-81 0 0c4-7 11-11 19-11 12 0 21 9 21 21 0 5-1 9-4 13l-49 85 0 0-44 44 0 76 22-23 0 0 0 0 1 0 0 0 35-20c0 0 0 0 0-1l1 0 0 0c2-1 4-2 7-2 1 0 2 0 3 0l107-184c0 0 0 0 0-1l0 0 0 0c1-1 3-3 5-3 3 0 6 3 6 6 0 1-1 2-1 3z"/>
<glyph glyph-name="bluetooth" unicode="&#65;" d="M368 184l-72 72 72 71c1 1 1 2 2 3l0 0 0 0c3 3 5 8 5 14 0 6-3 12-7 16l-101 101c-4 5-10 8-17 8-12 0-22-10-22-22 0-2 1-4 1-6l0-119-55 55c-4 5-9 7-16 7-12 0-21-9-21-22 0-6 2-12 7-15l85-86 0-11-86-86c0 0 0 0 0 0l0 0 0 0c-4-4-6-10-6-15 0-12 9-22 21-22 7 0 13 3 17 7l54 55 0-124c0 0 0 0 0 0 0-1 0-1 0-1l0 0 0 0c1-12 10-21 22-21 6 0 12 3 16 7l0 0 102 102c0 0 0 0 0 0l1 1 0 0c3 4 5 9 5 14 0 7-3 13-7 17z m-45-17l-50-50 0 101z m-50 127l0 100 50-50z"/>
<glyph glyph-name="bold" unicode="&#66;" d="M321 261c28 5 50 30 50 66 0 39-28 74-83 74l-139 0c-8 0-14-6-14-13l0-264c0-7 6-13 14-13l144 0c55 0 84 35 84 79 0 36-25 66-56 71z m-124 86l77 0c21 0 34-13 34-31 0-18-13-30-34-30l-77 0z m80-182l-80 0 0 66 80 0c24 0 37-14 37-33 0-20-14-33-37-33z"/>
<glyph glyph-name="book" unicode="&#67;" d="M420 398l0 0c0 4-4 8-8 8l0 0-17 0 0-309 0 0c0-5-4-9-9-9l0 0-260 0c-4 0-8 3-9 7l0 19 243 0 0 0c0 0 0 0 0 0 5 0 9 4 9 8 0 0 0 0 0 0l0 319c0 4-4 8-9 8 0 0 0 0 0 0l0 0-260 0c-4 0-8-4-8-8 0 0 0 0 0-1l0-368c0-1 0-1 0-1 0 0 0 0 0 0l0 0 0 0c0-5 4-8 8-8l0 0 312 0 0 0 0 0c4 0 8 4 8 8l0 0z m-303-8c0 4 4 8 9 8l209 0c5 0 8-4 8-8l0-64 0 0c0-4-3-8-8-8l-209 0c-5 0-9 4-9 8l0 64c0 0 0 0 0 0z"/>
<glyph glyph-name="book-bookmark" unicode="&#68;" d="M420 398l0 0c0 4-4 8-8 8l0 0-17 0 0-309 0 0c0-5-4-9-9-9l0 0-260 0c-4 0-8 3-9 7l0 19 243 0 0 0c0 0 0 0 0 0 5 0 9 4 9 8 0 0 0 0 0 0l0 319c0 4-4 8-9 8 0 0 0 0 0 0l0 0-29 0 0-179c0-2-2-4-4-4-1 0-3 1-3 2l-29 29 0 0c-1 0-2 1-3 1-1 0-2-1-3-1l0 0-29-30 0 0c-1 0-2-1-3-1-2 0-4 2-4 4l0 179-153 0c-4 0-8-4-8-8 0 0 0 0 0-1l0-368c0-1 0-1 0-1 0 0 0 0 0 0l0 0 0 0c0-5 4-8 8-8l0 0 312 0 0 0 0 0c4 0 8 4 8 8l0 0z"/>
<glyph glyph-name="bookmark" unicode="&#69;" d="M350 445l-188 0c-8 0-15-7-15-16l0-351c0-6 5-11 11-11 3 0 6 1 8 3l0 0 82 83 1 0c1 2 4 3 7 3 3 0 6-1 8-3l0 0 81-82c2-2 5-4 9-4 6 0 11 5 11 11l0 351c0 9-7 16-15 16z"/>
<glyph glyph-name="braille" unicode="&#70;" d="M195 389c0-20-16-36-36-36-19 0-35 16-35 36 0 20 16 36 35 36 20 0 36-16 36-36z m193 0c0-20-16-36-35-36-20 0-36 16-36 36 0 20 16 36 36 36 19 0 35-16 35-36z m-193-133c0-20-16-36-36-36-19 0-35 16-35 36 0 20 16 36 35 36 20 0 36-16 36-36z m193 0c0-20-16-36-35-36-20 0-36 16-36 36 0 20 16 36 36 36 19 0 35-16 35-36z m-193-133c0-20-16-36-36-36-19 0-35 16-35 36 0 20 16 36 35 36 20 0 36-16 36-36z m193 0c0-20-16-36-35-36-20 0-36 16-36 36 0 20 16 36 36 36 19 0 35-16 35-36z"/>
<glyph glyph-name="burst" unicode="&#71;" d="M453 256c0 5-2 9-5 11l0 0-48 28 28 47 0 1c1 3 1 8-1 12-2 4-6 6-10 7l0 0-56 0 0 55 0 0c0 4-3 8-6 10-4 2-9 2-13 1l0 0-48-28-27 46 0 0c-3 4-7 6-11 6-5 0-9-2-11-6l-1 0-27-47-47 27 0 0c-4 2-8 2-12-1-4-2-7-6-7-10l0 0 0-55-55 0 0 0c-4 0-8-2-10-6-2-4-2-9-1-13l0 0 27-46-48-28 0 0c-3-3-5-7-5-11 0-5 2-9 5-11l0 0 48-28-28-48 0 0c-1-3-1-8 1-12 2-4 6-6 11-7l0 0 55 0 0-55 0 0c0-4 3-8 6-10 4-2 9-2 13-1l0 0 48 28 27-46 0 0c3-4 7-6 11-6 5 0 9 2 11 6l1 0 27 47 47-27 0 0c4-2 8-2 12 1 4 2 7 6 7 10l0 0 0 55 55 0 0 0c4 0 8 2 10 6 2 4 2 9 1 13l0 0-27 46 48 28 0 0c3 3 5 7 5 11z"/>
<glyph glyph-name="burst-new" unicode="&#72;" d="M453 256c0 5-2 9-5 11l0 0-48 28 28 47 0 1c1 3 1 8-1 12-2 4-6 6-10 7l0 0-56 0 0 55 0 0c0 4-3 8-6 10-4 2-9 2-13 1l0 0-48-28-27 46 0 0c-3 4-7 6-11 6-5 0-9-2-11-6l-1 0-27-47-47 27 0 0c-4 2-8 2-12-1-4-2-7-6-7-10l0 0 0-55-55 0 0 0c-4 0-8-2-10-6-2-4-2-9-1-13l0 0 27-46-48-28 0 0c-3-3-5-7-5-11 0-5 2-9 5-11l0 0 48-28-28-48 0 0c-1-3-1-8 1-12 2-4 6-6 11-7l0 0 55 0 0-55 0 0c0-4 3-8 6-10 4-2 9-2 13-1l0 0 48 28 27-46 0 0c3-4 7-6 11-6 5 0 9 2 11 6l1 0 27 47 47-27 0 0c4-2 8-2 12 1 4 2 7 6 7 10l0 0 0 55 55 0 0 0c4 0 8 2 10 6 2 4 2 9 1 13l0 0-27 46 48 28 0 0c3 3 5 7 5 11z m-229-58l-51 22 23-38-13-8-34 59 13 8 49-21-22 37 13 7 34-59z m24 14l-34 59 41 24 7-11-29-17 7-13 28 17 7-11-29-17 8-13 29 17 6-11z m96 55l-33 35 13-46-14-8-51 49 14 8 36-36-14 49 10 5 36-36-15 49 15 8 17-69z"/>
<glyph glyph-name="burst-sale" unicode="&#73;" d="M226 227l18 11-24 20z m227 29c0 5-2 9-5 11l0 0-48 28 28 47 0 1c1 3 1 8-1 12-2 4-6 6-10 7l0 0-56 0 0 55 0 0c0 4-3 8-6 10-4 2-9 2-13 1l0 0-48-28-27 46 0 0c-3 4-7 6-11 6-5 0-9-2-11-6l-1 0-27-47-47 27 0 0c-4 2-8 2-12-1-4-2-7-6-7-10l0 0 0-55-55 0 0 0c-4 0-8-2-10-6-2-4-2-9-1-13l0 0 27-46-48-28 0 0c-3-3-5-7-5-11 0-5 2-9 5-11l0 0 48-28-28-48 0 0c-1-3-1-8 1-12 2-4 6-6 11-7l0 0 55 0 0-55 0 0c0-4 3-8 6-10 4-2 9-2 13-1l0 0 48 28 27-46 0 0c3-4 7-6 11-6 5 0 9 2 11 6l1 0 27 47 47-27 0 0c4-2 8-2 12 1 4 2 7 6 7 10l0 0 0 55 55 0 0 0c4 0 8 2 10 6 2 4 2 9 1 13l0 0-27 46 48 28 0 0c3 3 5 7 5 11z m-261-78c-11-6-22-7-30-5l1 14c7-2 15-2 23 3 7 4 9 9 7 12-6 10-36-16-49 6-6 10-2 23 12 31 10 5 19 7 28 5l-2-14c-7 2-15 0-21-3-5-3-7-7-4-11 5-9 35 17 48-5 6-11 3-24-13-33z m72 43l-10 8-25-15 2-12-14-8-12 72 16 9 57-46z m19 11l-34 59 12 7 28-48 25 15 6-11z m46 27l-34 59 42 24 6-11-29-17 7-13 29 17 6-11-29-17 8-13 29 17 7-11z"/>
<glyph glyph-name="calendar" unicode="&#74;" d="M413 310l-314 0c-3 0-6-3-6-7l0-225c0-3 3-6 6-6l314 0c3 0 6 3 6 6l0 225c0 4-3 7-6 7z m-211-191c-11 0-23 3-32 6-2 1-3 2-2 4l3 22c0 1 0 1 1 2 1 0 2 1 3 0 10-4 19-5 29-5 12 0 20 5 20 13 0 9-5 14-30 16-2 0-3 1-3 3l0 22c0 2 1 3 3 3 21 2 24 8 24 13 0 3 0 9-15 9-7 0-16-2-24-6-1-1-2-1-3 0-1 0-2 1-2 2l-3 22c0 1 1 3 2 3 10 5 22 7 37 7 26 0 44-12 44-30 0-14-7-24-21-31 12-4 25-13 25-31 0-27-22-44-56-44z m136 6c0-2-1-4-3-4l-27 0c-1 0-3 2-3 4l0 88-17-7c-1 0-2 0-3 0-1 1-2 2-2 3l-3 22c0 1 1 2 2 3l38 19c1 0 1 0 2 0l13 0c2 0 3-1 3-3l0-125z m75 286l-34 0 0-16c0-16-9-34-36-34-26 0-36 18-36 34l0 16-102 0 0-16c0-16-9-34-36-34-26 0-36 18-36 34l0 16-34 0c-3 0-6-3-6-6l0-66c0-4 3-7 6-7l314 0c3 0 6 3 6 7l0 66c0 3-3 6-6 6z m-244-29c11 0 15 4 15 13l0 32c0 9-4 13-15 13-11 0-15-4-15-13l0-32c0-9 4-13 15-13z m174 0c11 0 15 4 15 13l0 32c0 9-4 13-15 13-11 0-15-4-15-13l0-32c0-9 4-13 15-13z"/>
<glyph glyph-name="camera" unicode="&#75;" d="M305 239c0-27-22-48-49-48-27 0-48 21-48 48 0 27 21 49 48 49 27 0 49-22 49-49z m139 149l0 0-85 0 0 15c0 10-9 19-19 19l-168 0c-10 0-19-9-19-19l0-15-85 0 0 0c-11 0-19-8-19-19l0-259c0-11 8-19 19-19l0-1 376 0 0 1c11 0 19 8 19 19l0 259c0 11-8 19-19 19z m-187-247c-54 0-98 44-98 98 0 55 44 99 98 99 55 0 99-44 99-99 0-54-44-98-99-98z m181 171l-76 0 0 51 76 0 0-51z"/>
<glyph glyph-name="check" unicode="&#76;" d="M451 357l-66 66c-3 2-6 4-9 4-3 0-7-2-9-4l-176-176-46 47c-5 5-13 5-18 0l-66-66c-2-3-3-6-3-9 0-3 1-7 3-9l121-121c3-2 6-4 9-4 0 0 0 1 0 1 1 0 1-1 1-1 3 0 6 2 9 4l250 250c5 5 5 13 0 18z"/>
<glyph glyph-name="checkbox" unicode="&#77;" d="M471 387l-44 45c-1 1-4 2-6 2-2 0-4-1-6-2l-159-160-31 31c-3 3-9 3-12 0l-44-44c-2-2-2-4-2-6 0-2 0-4 2-6l81-80c1-2 3-3 6-3 0 0 0 0 0 0 0 0 0 0 0 0 2 0 4 1 6 3l209 209c3 3 3 8 0 11z m-102-150l0-108-226 0 0 226 159 0 51 51-234 0 0 0c0 0 0 0-1 0-14 0-25-12-26-26l0 0 0-276 0 0c1-14 12-26 26-26l0 0 276 0 0 0c14 0 25 12 26 26l0 0 0 185z"/>
<glyph glyph-name="clipboard" unicode="&#78;" d="M413 424l0 0c0 0 0 0 0 0 0 15-12 27-26 27-1 0-1 0-1 0l-74 0 0 18c0 4-4 8-9 8l0 0-94 0 0 0c0 0 0 0 0 0-5 0-8-4-8-8 0 0 0 0 0-1l0-17-76 0c0 0 0 0 0 0-14 0-26-12-26-27 0 0 0 0 0 0l0 0 0-362 0 0c0 0 0 0 0 0 0-15 12-27 26-27 1 0 1 0 2 0l0 0 258 0c1 0 1 0 2 0 14 0 26 12 26 27 0 0 0 0 0 0l1 0 0 362z m-50-338l-214 0 0 314 26 0 0-15c0-1 0-1 0-1 0-5 4-9 9-9 0 0 0 0 0 0l0 0 144 0c5 0 9 4 9 9 0 0 0 0 0 0l0 16 26 0 0-314z"/>
<glyph glyph-name="clipboard-notes" unicode="&#79;" d="M413 424l0 0c0 0 0 0 0 0 0 15-12 27-26 27-1 0-1 0-1 0l-74 0 0 18c0 4-4 8-9 8l0 0-94 0 0 0c0 0 0 0 0 0-5 0-8-4-8-8 0 0 0 0 0-1l0-17-76 0c0 0 0 0 0 0-14 0-26-12-26-27 0 0 0 0 0 0l0 0 0-362 0 0c0 0 0 0 0 0 0-15 12-27 26-27 1 0 1 0 2 0l0 0 258 0c1 0 1 0 2 0 14 0 26 12 26 27 0 0 0 0 0 0l1 0 0 362z m-50-338l-214 0 0 314 26 0 0-15c0-1 0-1 0-1 0-5 4-9 9-9 0 0 0 0 0 0l0 0 144 0c5 0 9 4 9 9 0 0 0 0 0 0l0 16 26 0 0-314z m-163 215c0 4-2 7-6 7 0 0 0 0 0-1l0 1-13 0c-3 0-6-3-6-7l0-13c0-3 3-6 6-6l13 0 0 0c0 0 0 0 0 0 4 0 6 3 6 6l0 13 0 0z m137 0c0 4-3 7-6 7 0 0 0 0 0 0l-99 0c-3 0-6-3-6-7l0-13c0-3 3-6 6-6l99 0c3 0 6 3 6 6l0 13 0 0z m-137-51c0 4-2 7-6 7 0 0 0-1 0-1l0 1-13 0c-3 0-6-3-6-7l0-13c0-3 3-6 6-6l13 0 0 0c0 0 0 0 0 0 4 0 6 3 6 6l0 13 0 0z m137 0c0 4-3 7-6 7 0 0 0 0 0 0l-99 0c-3 0-6-3-6-7l0-13c0-3 3-6 6-6l99 0c3 0 6 3 6 6l0 13 0 0z m-137-51c0 4-2 6-6 6 0 0 0 0 0 0l0 0-13 0c-3 0-6-2-6-6l0-13c0-3 3-6 6-6l13 0 0 0c0 0 0 0 0 0 4 0 6 3 6 6l0 13 0 0z m137 0c0 4-3 6-6 6 0 0 0 0 0 0l-99 0c-3 0-6-2-6-6l0-13c0-3 3-6 6-6l99 0c3 0 6 3 6 6l0 13 0 0z"/>
<glyph glyph-name="clipboard-pencil" unicode="&#80;" d="M450 292l-42 42c-2 2-6 2-9 0l-115-116 0 0-1 0-15-59 0 0c-1-2-1-5 1-6 2-2 5-3 7-2l0 0 59 16 0 0 0 0 115 116c3 2 3 6 0 9z m-163-121l9 35 26-26z m81-34l-38 0c0 0 0 0 0 0-3 0-6-3-6-6l0 0 0-45-213 0 0 314 25 0 0-15c0-1 0-1 0-1 0-5 4-9 9-9 1 0 1 0 1 0l0 0 143 0c5 0 9 4 9 9 0 0 0 0 0 0l0 16 26 0 0-44 0 0c0-4 3-7 6-7l38 0c4 0 7 3 7 7l0 68 0 0c0 0 0 0 0 0 0 15-12 27-27 27 0 0 0 0-1 0l-74 0 0 18c0 4-4 8-8 8l0 0-95 0 0 0c0 0 0 0 0 0-5 0-8-4-8-8 0 0 0 0 0-1l0-17-75 0c0 0 0 0 0 0-15 0-27-12-27-27 0 0 0 0 0 0l0 0 0-362 0 0c0 0 0 0 0 0 0-15 12-27 27-27 0 0 0 0 1 0l0 0 258 0c1 0 1 0 2 0 15 0 27 12 27 27 0 0 0 0 0 0l0 0 0 69c0 3-3 6-7 6z"/>
<glyph glyph-name="clock" unicode="&#81;" d="M256 397c78 0 141-63 141-141 0-78-63-141-141-141-78 0-141 63-141 141 0 78 63 141 141 141m0 51c-106 0-192-86-192-192 0-106 86-192 192-192 106 0 192 86 192 192 0 106-86 192-192 192z m98-121l-20 20c-3 4-10 4-14 0l-64-64-35 36c-4 3-10 3-14 0l-20-20c-2-2-3-5-3-8 0-2 1-5 3-7l62-62c2-2 4-3 7-3 0 0 0 0 0 0 3 0 6 1 7 3l91 91c4 4 4 10 0 14z"/>
<glyph glyph-name="closed-caption" unicode="&#82;" d="M418 364l-160 32c-1 0-3 0-4 0l-160-32c-5-1-9-6-9-11l0-194c0-6 4-10 9-11l160-32c1 0 3 0 4 0l160 32c5 1 9 5 9 11l0 194c0 5-4 10-9 11z m-184-150c-11-24-28-36-51-36-39 0-65 31-65 78 0 47 26 78 65 78 22 0 39-12 50-35 1-2 1-4 1-6-1-2-3-4-5-5l-18-8c-5-2-10 0-12 4-2 6-7 13-16 13-15 0-25-17-25-41 0-24 10-41 25-41 10 0 15 10 16 14 1 2 3 4 5 5 2 1 4 1 7 0l18-8c2-1 4-3 5-5 1-2 1-4 0-7z m159 0c-11-24-28-36-51-36-39 0-64 31-64 78 0 47 25 78 64 78 23 0 40-12 51-35 1-2 1-4 0-6-1-2-3-4-5-5l-18-8c-4-2-9 0-11 4-3 6-8 13-17 13-15 0-24-17-24-41 0-24 9-41 24-41 10 0 15 10 16 14 1 2 3 4 5 5 2 1 5 1 7 0l18-8c3-1 4-3 5-5 1-2 1-4 0-7z"/>
<glyph glyph-name="cloud" unicode="&#83;" d="M407 270c-18 66-74 113-139 113-45 0-88-23-115-62-8 2-15 3-23 3-61 0-110-54-110-121 0-23 6-46 18-66 3-5 8-8 13-8l414 0c5 0 9 3 12 7 10 15 15 32 15 50 0 50-40 90-85 84z"/>
<glyph glyph-name="comment" unicode="&#84;" d="M453 425c-1 9-8 16-17 16l-360 0 0 0c-9 0-16-7-17-16l0 0 0-288 0 0c2-8 9-14 17-14l0 0 59 0 0-35c0-9 8-17 17-17 6 0 11 3 14 8l45 44 225 0c8 0 15 6 17 14l0 0 0 288z"/>
<glyph glyph-name="comment-minus" unicode="&#85;" d="M324 230c-5 0-9 4-9 9 0 0 0 0 0 0l0 86c0 5 4 9 9 9l91 0 0 91 0 0c-1 9-8 16-17 16l-360 0 0 0c-9 0-16-7-17-16l0 0 0-288 1 0c1-8 8-14 16-14l0 0 59 0 0-35c0-9 8-17 18-17 5 0 11 3 14 8l44 44 225 0c9 0 16 6 17 14l0 0 0 93z m158 79l-133 0c-5 0-9-4-9-9l0-36c0-4 4-8 9-8l133 0c5 0 9 4 9 8l0 36c0 5-4 9-9 9z"/>
<glyph glyph-name="comment-quotes" unicode="&#86;" d="M453 425c-1 9-8 16-17 16l-360 0 0 0c-9 0-16-7-17-16l0 0 0-288 0 0c2-8 9-14 17-14l0 0 59 0 0-35c0-9 8-17 17-17 6 0 11 3 14 8l45 44 225 0c8 0 15 6 17 14l0 0 0 288z m-308-172c-15 0-29 12-29 34 0 25 13 47 34 61l0 0c1 1 1 1 2 1 1 0 1 0 2-1l0 0 14-9 0 0c1 0 1-1 1-3 0-1 0-2-2-3l0 0c0 0 0 0 0 0 0 0 0 0 0 0-10-6-22-19-25-31 2 1 4 1 7 1 13 0 23-10 23-24 0-14-12-26-27-26z m68 0c-15 0-29 12-29 34 0 25 13 47 34 61l0 0c0 1 1 1 2 1 0 0 1 0 2-1l0 0 14-9 0 0c1 0 1-1 1-3 0-1-1-2-2-3l0 0c0 0 0 0 0 0 0 0 0 0 0 0-11-6-22-19-25-31 1 1 4 1 7 1 12 0 22-10 22-24 0-14-12-26-26-26z m81-37l0 0c0 0-1-1-2-1 0 0-1 1-2 1l0 0-14 9 0 0c-1 1-1 2-1 3 0 1 1 3 2 3l0 0c0 0 0 0 0 0 0 0 0 0 0 0 11 6 22 20 25 31-1 0-4-1-7-1-12 0-22 10-22 24 0 15 12 27 26 27 15 0 29-13 29-34 0-25-13-48-34-62z m68 0l0 0c-1 0-1-1-2-1-1 0-1 1-2 1l0 0-14 9 0 0c-1 1-1 2-1 3 0 1 0 3 2 3l0 0c0 0 0 0 0 0 0 0 0 0 0 0 10 6 22 20 25 31-2 0-4-1-7-1-13 0-23 10-23 24 0 15 12 27 27 27 15 0 29-13 29-34 0-25-13-48-34-62z"/>
<glyph glyph-name="comment-video" unicode="&#87;" d="M453 425c-1 9-8 16-17 16l-360 0 0 0c-9 0-16-7-17-16l0 0 0-288 0 0c2-8 9-14 17-14l0 0 59 0 0-35c0-9 8-17 17-17 6 0 11 3 14 8l45 44 225 0c8 0 15 6 17 14l0 0 0 288z m-90-206l-65 31 0-29c0-7-5-12-12-12l-110 0c-7 0-12 5-12 12l0 120c0 7 5 12 12 12l110 0c7 0 12-5 12-12l0-28 65 30z"/>
<glyph glyph-name="comments" unicode="&#88;" d="M486 421c0 6-6 11-12 11l0 0-271 0c-7 0-12-5-13-11l0 0 0-68 114 0c6 0 11-4 12-10l0 0 0-150 56 0 33-33c3-3 7-6 11-6 7 0 13 6 13 13l0 26 45 0 0 0c6 0 11 5 12 11l0 0 0 217z m-207-93l-242 0 0 0c-6 0-11-5-11-11l0 0 0-193 0 0c1-5 5-9 11-10l0 0 40 0 0-23c0-6 5-11 11-11 4 0 8 2 10 5l30 29 151 0c5 0 10 4 11 10l0 0 0 193 0 0c0 6-5 11-11 11z"/>
<glyph glyph-name="compass" unicode="&#89;" d="M256 448c-106 0-192-86-192-192 0-106 86-192 192-192 106 0 192 86 192 192 0 106-86 192-192 192z m0-333c-78 0-141 63-141 141 0 78 63 141 141 141 78 0 141-63 141-141 0-78-63-141-141-141z m75 230l-100-60c-1-1-2-2-3-3l-61-101c-2-4-1-9 2-12l0 0c2-2 5-3 7-3 2 0 3 0 5 1l101 61c1 1 2 2 3 3l60 100c2 4 1 9-2 12-3 3-8 4-12 2z"/>
<glyph glyph-name="contrast" unicode="&#90;" d="M256 448c-106 0-192-86-192-192 0-106 86-192 192-192 106 0 192 86 192 192 0 106-86 192-192 192z m1-51c77 0 140-63 140-141 0-78-63-141-140-141z"/>
<glyph glyph-name="credit-card" unicode="&#48;" d="M445 378c0 7-6 13-13 13-1 0-1 0-1 0l-349 0c-1 0-1 0-2 0-7 0-13-6-13-13 0-1 0-1 0-2l0-36 378 0 0 37 0 0c0 0 0 1 0 1z m-378-244c0 0 0 0 0 0 0-7 6-13 14-13 0 0 0 0 1 0l0 0 350 0 0 0c7 0 13 6 13 13l0 0 0 155-378 0z"/>
<glyph glyph-name="crop" unicode="&#49;" d="M452 148c0 0 0 0 0 0l-37 0 0 241-1 0c0 1 0 1 0 1 0 14-11 25-24 25l-242 0 0 36c0 8-6 14-13 14l-24 0c-7 0-14-6-14-14 0 0 0 0 0 0l0-36-37 0c0 0 0 0 0 0-7 0-14-6-14-14l0-23c0-8 7-14 14-14 0 0 0 0 0 0l37 0 0-241 1 0c0-1 0-1 0-1 0-14 11-25 24-25l242 0 0-36c0-8 6-14 13-14l24 0c7 0 14 6 14 14l0 36 37 0c0 0 0 0 0 0 7 0 14 6 14 14l0 23c0 8-7 14-14 14z m-304 0l0 216 216 0 0-216-216 0z"/>
<glyph glyph-name="crown" unicode="&#50;" d="M430 102c0 9-7 16-15 16l-318 0c-8 0-15-7-15-16l0-19c0-9 7-16 15-16l318 0c8 0 15 7 15 16z m-304 213l0 0 0 0c-3 3-7 4-11 4-9 0-16-7-17-16l0 0 0-150 1 0c0-8 7-15 16-15 0 0 0 0 0 0l0 0 282 0 0 1c0 0 0 0 0 0 8 0 15 6 16 14l1 0 0 2c0 0 0 0 0 0l0 145c0 1 0 2 0 3 0 10-8 17-17 17-4 0-7-1-10-4l0 0-1 0c0-1-1-1-1-2l-36-35-81 81 0 0c-3 3-7 5-12 5-5 0-9-2-12-5l0 0-82-81-34 35c-1 0-1 1-2 1z m248-43l0 0-1 0z m-229 101c0-17-13-31-31-31-17 0-31 14-31 31 0 17 14 31 31 31 18 0 31-14 31-31z m282 0c0-17-14-31-31-31-17 0-31 14-31 31 0 17 14 31 31 31 17 0 31-14 31-31z m-138 41c0-17-14-31-31-31-17 0-31 14-31 31 0 17 14 31 31 31 17 0 31-14 31-31z"/>
<glyph glyph-name="css3" unicode="&#51;" d="M93 439l31-330 132-36 132 36 31 330z m260-107l-97-42 0 0 94 0-11-123-83-25 0 0 0 0-83 25-6 62 42 0 2-32 45-11 0 0 0 0 46 13 3 52-49 0-91 0-4 39 95 40 5 2-103 0-5 40 204 0z"/>
<glyph glyph-name="database" unicode="&#52;" d="M169 387l0 0c-1 12-10 21-22 22l0 0-81 0 0 0c-12-1-21-10-21-22l0 0 0-262 0 0c0-12 10-21 21-21l0-1 81 0c12 0 22 10 22 22 0 0 0 0 0 0z m-62-258c-18 0-32 14-32 32 0 17 14 32 32 32 18 0 32-15 32-32 0-18-14-32-32-32z m36 115l-72 0 0 139 72 0z m175 143l0 0c-1 12-10 21-22 22l0 0-81 0 0 0c-11-1-20-10-21-22l0 0 0-262 0 0c0-12 10-21 21-21l0-1 81 0c12 0 22 10 22 22 0 0 0 0 0 0z m-62-258c-18 0-32 14-32 32 0 17 14 32 32 32 18 0 32-15 32-32 0-18-14-32-32-32z m36 115l-72 0 0 139 72 0 0-139z m175 143l0 0c0 12-10 21-22 22l0 0-81 0 0 0c-11-1-20-10-21-22l0 0 0-262 0 0c1-12 10-21 21-21l0-1 81 0c12 0 22 10 22 22 0 0 0 0 0 0z m-62-258c-18 0-32 14-32 32 0 17 14 32 32 32 18 0 32-15 32-32 0-18-14-32-32-32z m36 115l-72 0 0 139 72 0z"/>
<glyph glyph-name="die-five" unicode="&#53;" d="M430 393c-1 20-17 36-37 37l0 0-274 0 0 0c-20-1-36-17-37-37l0 0 0-274 0 0c1-20 17-36 37-37l0 0 274 0 0 0c20 1 36 17 37 37l0 0 0 274z m-261-258c-20 0-36 16-36 36 0 20 16 36 36 36 20 0 36-16 36-36 0-20-16-36-36-36z m0 172c-20 0-36 16-36 36 0 20 16 36 36 36 20 0 36-16 36-36 0-20-16-36-36-36z m87-87c-20 0-36 16-36 36 0 20 16 36 36 36 20 0 36-16 36-36 0-20-16-36-36-36z m87-87c-20 0-36 16-36 36 0 20 16 36 36 36 20 0 36-16 36-36 0-20-16-36-36-36z m0 174c-20 0-36 16-36 36 0 20 16 36 36 36 20 0 36-16 36-36 0-20-16-36-36-36z"/>
<glyph glyph-name="die-four" unicode="&#54;" d="M430 393c-1 20-17 36-37 37l0 0-274 0 0 0c-20-1-36-17-37-37l0 0 0-274 0 0c1-20 17-36 37-37l0 0 274 0 0 0c20 1 36 17 37 37l0 0 0 274z m-261-258c-20 0-36 16-36 36 0 20 16 36 36 36 20 0 36-16 36-36 0-20-16-36-36-36z m0 172c-20 0-36 16-36 36 0 20 16 36 36 36 20 0 36-16 36-36 0-20-16-36-36-36z m174-174c-20 0-36 16-36 36 0 20 16 36 36 36 20 0 36-16 36-36 0-20-16-36-36-36z m0 174c-20 0-36 16-36 36 0 20 16 36 36 36 20 0 36-16 36-36 0-20-16-36-36-36z"/>
<glyph glyph-name="die-one" unicode="&#55;" d="M430 393c-1 20-17 36-37 37l0 0-274 0 0 0c-20-1-36-17-37-37l0 0 0-274 0 0c1-20 17-36 37-37l0 0 274 0 0 0c20 1 36 17 37 37l0 0 0 274z m-174-176c-22 0-39 17-39 39 0 22 17 39 39 39 22 0 39-17 39-39 0-22-17-39-39-39z"/>
<glyph glyph-name="die-six" unicode="&#56;" d="M430 393c-1 20-17 36-37 37l0 0-274 0 0 0c-20-1-36-17-37-37l0 0 0-274 0 0c1-20 17-36 37-37l0 0 274 0 0 0c20 1 36 17 37 37l0 0 0 274z m-261-258c-20 0-36 16-36 36 0 20 16 36 36 36 20 0 36-16 36-36 0-20-16-36-36-36z m0 85c-20 0-36 16-36 36 0 20 16 36 36 36 20 0 36-16 36-36 0-20-16-36-36-36z m0 87c-20 0-36 16-36 36 0 20 16 36 36 36 20 0 36-16 36-36 0-20-16-36-36-36z m174-174c-20 0-36 16-36 36 0 20 16 36 36 36 20 0 36-16 36-36 0-20-16-36-36-36z m0 87c-20 0-36 16-36 36 0 20 16 36 36 36 20 0 36-16 36-36 0-20-16-36-36-36z m0 87c-20 0-36 16-36 36 0 20 16 36 36 36 20 0 36-16 36-36 0-20-16-36-36-36z"/>
<glyph glyph-name="die-three" unicode="&#57;" d="M430 393c-1 20-17 36-37 37l0 0-274 0 0 0c-20-1-36-17-37-37l0 0 0-274 0 0c1-20 17-36 37-37l0 0 274 0 0 0c20 1 36 17 37 37l0 0 0 274z m-261-86c-20 0-36 16-36 36 0 20 16 36 36 36 20 0 36-16 36-36 0-20-16-36-36-36z m87-87c-20 0-36 16-36 36 0 20 16 36 36 36 20 0 36-16 36-36 0-20-16-36-36-36z m87-87c-20 0-36 16-36 36 0 20 16 36 36 36 20 0 36-16 36-36 0-20-16-36-36-36z"/>
<glyph glyph-name="die-two" unicode="&#33;" d="M430 393c-1 20-17 36-37 37l0 0-274 0 0 0c-20-1-36-17-37-37l0 0 0-274 0 0c1-20 17-36 37-37l0 0 274 0 0 0c20 1 36 17 37 37l0 0 0 274z m-261-86c-20 0-36 16-36 36 0 20 16 36 36 36 20 0 36-16 36-36 0-20-16-36-36-36z m174-174c-20 0-36 16-36 36 0 20 16 36 36 36 20 0 36-16 36-36 0-20-16-36-36-36z"/>
<glyph glyph-name="dislike" unicode="&#34;" d="M423 359l0 0c0 2-1 4-2 5l0 0-50 50 0 0c-2 1-4 2-5 1l-185 0c-1 0-1 0-1 0-7 0-13-5-13-12l0 0 0 0c0 0 0 0 0-1 0 0 0 0 0 0l0-187 0 0c0 0 0 0 0 0 0-7 5-13 13-13 0 0 0 0 0 0l51 0c1-1 2-2 3-3l1-1 0 0 0 0 50-86 0 0c5-9 14-15 25-15 16 0 30 13 30 29l0 0 0 76 70 0 0 0c7 1 12 6 13 13l0 0 0 144z m-283 21c0 0 0 0 0 0 0 7-5 13-13 13 0 0 0 0 0-1l-25 0 0 0c-7 0-12-5-13-12l0 0 0-141 1 0c0-7 6-12 12-12l0 0 26 0c7 0 13 6 13 13 0 0-1 1-1 2z"/>
<glyph glyph-name="dollar" unicode="&#35;" d="M278 283l0 51c17-4 33-12 47-24l0 0c1-1 2-1 4-1 1 0 3 1 4 2l0 0 22 31 0 0c1 1 1 2 1 4 0 1 0 3-2 4-20 19-46 30-76 33l0 30 0 0c0 3-3 6-6 6l-23 0c-4 0-6-3-6-6l0-29c-51-5-81-38-81-75 0-51 42-66 81-76l0-58c-25 5-46 18-59 32 0 0-1 0-1 0 0 0 0 1 0 1l0 0c-1 0-2 1-4 1-2 0-4-1-5-3l0 0-21-32 0 0c-1-1-1-2-1-3 0-2 0-4 2-5l0 0c20-21 49-36 89-39l0-28c0-3 2-6 6-6l23 0c3 0 6 3 6 6l0 0 0 28c55 6 82 38 82 79 0 52-43 67-82 77z m-35 8c-16 5-26 11-26 22 0 12 9 21 26 24z m35-116l0 50c16-5 28-11 28-24 0-12-9-23-28-26z"/>
<glyph glyph-name="dollar-bill" unicode="&#36;" d="M480 358l-1 0c0 11-8 20-19 20l-408 0c-11 0-20-9-20-20l0-204c0-11 9-20 20-20l408 0c11 0 19 9 19 20l0 0 1 0z m-77-28l0 18c0 2 2 4 4 4 0 0 0 0 0 0l0 0 43 0 0 0c0 0 0 0 0 0 2 0 4-2 4-4l0-43c0-2-2-4-4-4 0 0 0 0 0 0l0 0-17 0c-3 0-4 2-4 4l0 21-22 0 0 0c0 0 0 0 0 0-2 0-4 2-4 4z m-294-148l0-18c0-2-2-4-4-4 0 0 0 0 0 0l0 0-43 0 0 0c0 0 0 0 0 0-2 0-4 2-4 4l0 43c0 2 2 4 4 4 0 0 0 0 0 0l0 0 17 0c3 0 4-2 4-4l0-21 22 0 0 0c0 0 0 0 0 0 2 0 4-2 4-4z m0 166l0-17c0-3-2-5-4-5l-21 0 0-21-1 0c0 0 1 0 1 0 0-2-2-4-4-4l-18 0c-2 0-4 2-4 4 0 0 0 0 0 0l0 0 0 43 0 0c0 0 0 0 0 0 0 2 2 4 4 4l43 0c2 0 4-2 4-4 0 0 0 0 0 0z m147-188c-53 0-96 43-96 96 0 53 43 96 96 96 53 0 96-43 96-96 0-53-43-96-96-96z m198 47l0-43 0 0c0 0 0 0 0 0 0-2-2-4-4-4l-43 0c-2 0-4 2-4 4 0 0 0 0 0 0l0 0 0 17c0 3 2 5 4 5l21 0 0 21 1 0c-1 0-1 0-1 0 0 2 2 4 4 4l18 0c2 0 4-2 4-4 0 0 0 0 0 0z m-198 120c-39 0-71-32-71-71 0-15 5-29 13-40l0 0c0 4 2 6 4 8l29 13 11 5c-5 3-9 8-12 14-2 5-4 11-4 17 0 3 1 7 2 10 4 14 15 24 28 24 14 0 25-10 28-25 1-3 2-6 2-9 0-6-2-11-4-16-3-6-7-11-12-14l12-6 28-13c2-2 4-4 4-8l0 0c8 11 13 25 13 40 0 39-32 71-71 71z"/>
<glyph glyph-name="download" unicode="&#37;" d="M433 258l-90 0c-11 0-21-7-24-17-9-28-34-46-63-46-29 0-54 18-63 46-3 10-13 17-24 17l-90 0c-14 0-25-11-25-25l0-144c0-14 11-25 25-25l354 0c14 0 25 11 25 25l0 144c0 14-11 25-25 25z m-182-13c1-2 3-3 5-3l0 0c2 0 4 1 6 3l69 98c2 2 2 4 1 7-1 2-4 3-6 3l-33 0 0 88c0 4-3 7-7 7l-60 0c-4 0-7-3-7-7l0-88-33 0c-2 0-5-1-6-3-1-3-1-5 1-7z"/>
<glyph glyph-name="eject" unicode="&#38;" d="M78 205l357 0 0 0c7 1 12 6 12 13 0 4-2 7-4 9l-178 177 0 0c-2 3-5 5-9 5-5 0-8-2-11-5l-176-177c-3-3-4-6-4-9 0-7 6-13 13-13z m369-89l0 51 0 0 0 0c0 7-6 13-13 13l0 0-357-1 0 0c-7-1-12-6-12-13 0 0 0 0 0 0l0-49c0 0 0-1 0-1 0-7 5-12 12-13l0 0 357 0c7 0 13 6 13 13 0 0 0 0 0 0z"/>
<glyph glyph-name="elevator" unicode="&#39;" d="M398 457c0 0 0 0 0 0l-376 0c-7 0-13-6-13-13l0-376c0-7 6-13 13-13l0 0c0 0 0 0 0 0 0 0 0 0 0 0l376 0c0 0 0 0 0 0 7 0 13 6 13 13l0 376c0 7-6 13-13 13z m-337-52l299 0 0-298-299 0z m438-221l-14 0 0 40c0 2-2 3-3 3l-28 0c-1 0-3-1-3-3l0-40-15 0c-1 0-2 0-2-1-1-1-1-2 0-3l31-44c1-1 2-2 3-2 0 0 0 0 0 0 1 0 2 1 2 2l32 44c0 1 1 2 0 3 0 1-2 1-3 1z m-62 143l14 0 0-39c0-2 2-3 3-3l28 0c1 0 3 1 3 3l0 39 15 0c1 0 2 1 2 2 1 1 1 2 0 3l-32 44c0 1-1 2-2 2 0 0 0 0 0 0-1 0-2-1-3-2l-31-44c-1-1-1-2 0-3 0-1 1-2 3-2z m-268 21c0-14-12-25-26-25-14 0-25 11-25 25 0 14 11 26 25 26 14 0 26-12 26-26z m22-32l0 0-91 0 0 0c-6 0-11-5-11-12l0 0 0-72 0 0c0-2 1-5 3-7 4-4 11-4 15 0 2 2 3 5 3 7l0 0 0 50 0 0c0 2 2 4 3 4 2 0 4-2 4-4l0 0 0-131c0-7 5-13 12-13 7 0 13 6 13 13l0 66 0 0c0 2 1 4 3 4 2 0 4-2 4-4l0 0 0-66c0-7 5-13 12-13 7 0 13 6 13 13l0 131c0 2 1 4 3 4 2 0 4-2 4-4l0-50 0 0c0-2 1-5 3-7 4-4 11-4 15 0 2 2 3 5 3 7l0 0 0 72c0 6-5 11-11 12z m107 32c0-14-11-25-25-25-14 0-25 11-25 25 0 14 11 26 25 26 14 0 25-12 25-26z m23-32l0 0-91 0 0 0c-6 0-12-5-12-12l0 0 0-72 0 0c0-2 1-5 3-7 5-4 11-4 16 0 2 2 3 5 3 7l0 0 0 50 0 0c0 2 1 4 3 4 2 0 3-2 4-4l0 0 0-131c0-7 5-13 12-13 7 0 13 6 13 13l0 66 0 0c0 2 1 4 3 4 2 0 4-2 4-4l0 0 0-66c0-7 5-13 12-13 7 0 13 6 13 13l0 131c0 2 1 4 3 4 2 0 3-2 3-4l0-50 0 0c0-2 2-5 4-7 4-4 11-4 15 0 2 2 3 5 3 7l0 0 0 72c0 6-5 11-11 12z"/>
<glyph glyph-name="euro" unicode="&#40;" d="M394 189c0 0 0 0 0 0l0 0-40 19 0 0c-3 2-6 1-8-2 0 0 0-1 0-1-11-22-36-39-64-39-34 0-62 17-76 45l100 0c0 0 1 0 1 0 3 0 6 3 6 6l0 21c0 3-3 6-6 6l0 0-111 0c0 4 0 8 0 12 0 5 0 9 0 13l111 0c0 0 0 0 0 0 0 0 0 0 0 0l0 0 0 0c3 0 6 3 6 6l0 21c0 3-3 6-6 6 0 0 0 0-1 0l-100 0c15 27 42 44 76 44 28 0 53-17 64-40l1 0c1-2 4-3 7-2l0 0 40 19 0 0c0 0 0 0 0 0 3 2 4 5 3 8l0 0c0 0 0 0 0 0 0 0 0 0 0 0 0 0-1 0-1 0-19 35-54 67-114 67-67 0-121-37-140-96l-21 0c0 0 0 0 0 0-4 0-6-3-6-6l0-21c0-3 2-6 6-6 0 0 0 0 0 0l15 0c-1-4-1-8-1-13 0-4 0-8 1-12l-15 0 0 0c-4 0-6-3-6-6l0-21c0-3 2-6 6-6 0 0 0 0 0 1l21 0c18-60 73-98 140-98 60 0 95 33 114 67 0 0 0 0 1 0 0 0 0 0 0 0 0 0 0 0 0 0l0 0c1 3 0 6-3 8z"/>
<glyph glyph-name="eye" unicode="&#41;" d="M432 268l-85 86-1-1c-24 22-55 36-90 36-40 0-75-17-99-45l-80-79 0 0c-2-3-4-6-4-9 0-5 3-8 6-11l86-87 0 1c24-22 56-36 91-36 39 0 74 17 98 44l1 0 79 79c0 1 1 1 1 1l0 0c2 3 3 6 3 9 1 5-2 9-6 12z m-176-102c-50 0-90 40-90 90 0 50 40 90 90 90 49 0 89-40 89-90 0-50-40-90-89-90z m44 90c0-24-20-44-44-44-24 0-44 20-44 44 0 24 20 43 44 43 24 0 44-19 44-43z"/>
<glyph glyph-name="fast-forward" unicode="&#42;" d="M442 256c0 4-2 7-5 8l0 0-192 111c-1 1-3 2-6 2-4 0-8-3-8-8l0 0 0-78-146 84c-2 1-4 2-6 2-5 0-9-3-9-8l0 0 0-226c0-4 4-8 9-8 2 0 4 1 6 2l146 84 0-78c0-4 3-8 8-8 3 0 5 1 7 2l192 111 0 1c2 1 4 4 4 7z"/>
<glyph glyph-name="female" unicode="&#43;" d="M294 409c0-24-19-42-42-42-23 0-42 18-42 42 0 23 19 42 42 42 23 0 42-19 42-42z m75-174l-28 105c0 0 0 0 0 0l0 2 0 0c-3 8-10 13-19 13 0 0 0 0 0 0l0 1-132 0 0-1c-9 0-16-5-19-13l0 0 0-2c0 0 0 0 0 0l-28-105 0 0c0-1 0-2 0-3 0-10 8-18 17-18 8 0 14 5 17 12l0 0 21 76 0 0 0 0c0 3 3 5 5 5 3 0 5-2 6-5l0 0 0-1c0 0 0 0 0 0 0 0 0 0 0 0l0-1-33-123c-1-1-1-2-1-3l0-1 0 0c0 0 0 0 0 0 0-5 4-10 9-10l25 0 0-81c0-11 9-21 20-21 12 0 21 10 21 21l0 81 12 0 0-81c0-11 9-21 20-21 12 0 21 10 21 21l0 81 25 0c5 0 9 5 9 10 0 0 0 0 0 0l0 0 0 1c0 1 0 2-1 3l-33 122 0 0c0 1 0 1 0 2 0 3 3 6 6 6 2 0 5-2 5-5l0 0 21-76 0 0c3-7 9-12 17-12 9 0 17 8 17 18 0 1 0 2 0 3z"/>
<glyph glyph-name="female-symbol" unicode="&#44;" d="M351 227c52 52 52 137 0 190-53 52-137 52-190 0-52-53-52-138 0-190 20-19 44-32 69-37l0-41-27 0c-2 0-4-1-6-2-1-2-2-4-2-6l0-35c0-5 3-8 8-8 0 0 0 0 0 0l27 0 0-34c0-4 3-7 6-8l0 0 2 0c0 0 0 0 0 0 0 0 0 0 0 0l35 0c0 0 0 0 0 0 4 0 8 4 8 8l0 0 0 34 28 0c0 0 0 0 0 0 5 0 8 3 8 8l0 35c0 2-1 4-2 6-2 1-4 2-6 2l-28 0 0 41c26 5 50 17 70 37z m-95 12c-46 0-83 37-83 83 0 46 37 83 83 83 46 0 83-37 83-83 0-46-37-83-83-83z"/>
<glyph glyph-name="filter" unicode="&#45;" d="M461 398c0 18-14 32-32 33l0 0-343 0 0 0c0 0-1 0-2 0-18 0-33-15-33-33 0-11 5-20 13-26l154-154 0-96 0 0 0 0c0-7 4-12 9-15l0 0 40-23c0 0 1 0 1-1l0 0 0 0c3-1 6-2 9-2 10 0 17 8 17 17 0 1 0 1 0 2l0 0 0 118 156 155 0 0c7 6 11 15 11 25z m-296-33l0 0 0 0z"/>
<glyph glyph-name="first-aid" unicode="&#46;" d="M150 372l32 0 0 26 147 0 0-27 32 0 0 47 0 0c0 7-6 12-13 12l-185 0c0 0 0 0 0 0-7 0-13-5-13-12 0-1 0-1 0-1z m-23-290l258 0 0 262-258 0z m51 149c0 2 2 4 4 4l52 0 0 52c0 3 2 4 4 4l37 0c2 0 4-1 4-4l0-52 52 0c2 0 4-2 4-4l0-37c0-1 0-2-1-2-1-1-2-1-3-1l-52 0 0-53c0-1-1-2-1-3-1 0-2-1-3-1l-37 0c-1 0-2 1-3 1 0 1-1 2-1 3l0 53-52 0c-1 0-2 0-3 1-1 0-1 1-1 2z m-107 113c-11 0-21-9-21-21 0 0 0 0 0 0l0-220c0 0 0-1 0-1 0-11 10-20 21-20l0 0 30 0 0 262z m391-242l0 222 0 0c-1 11-10 20-21 20l-30 0 0-262 30 0 0 0c0 0 0 0 0 0 11 0 21 9 21 20 0 0 0 0 0 0z"/>
<glyph glyph-name="flag" unicode="&#47;" d="M434 389c-1 0-2 0-3 0l0 0c-17-9-37-14-58-14-38 0-73 17-95 45-21 19-49 31-80 31-29 0-56-11-77-29-4 9-13 15-24 15-15 0-27-12-27-27l0-322c0-15 12-27 27-27 15 0 27 12 27 27l0 145c17 9 36 13 56 13 39 0 73-17 96-45 21-19 49-31 79-31 33 0 63 14 84 36 2 2 3 4 3 6l0 169c0 5-4 8-8 8z"/>
<glyph glyph-name="folder" unicode="&#58;" d="M440 389l-188 0c-10 12-20 25-23 28-2 6-8 10-14 10l-75 0c-5 0-9-3-13-6l-25-32-30 0c-16 0-28-13-28-28l0-248c0-15 12-28 28-28l368 0c16 0 28 13 28 28l0 248c0 15-12 28-28 28z"/>
<glyph glyph-name="folder-add" unicode="&#59;" d="M440 389l-188 0c-10 12-20 25-23 28-2 6-8 10-14 10l-75 0c-5 0-9-3-13-6l-25-32-30 0c-16 0-28-13-28-28l0-248c0-15 12-28 28-28l368 0c16 0 28 13 28 28l0 248c0 15-12 28-28 28z m-22-201c0-1-1-2-1-2-1-1-2-1-3-1l-45 0 0-45c0-1 0-2-1-3 0 0-1-1-2-1l-32 0c-1 0-1 1-2 1-1 1-1 2-1 3l0 45-45 0c-1 0-2 0-2 1-1 0-1 1-1 2l0 31c0 2 1 4 3 4l45 0 0 45c0 2 1 3 3 3l32 0c2 0 3-1 3-3l0-45 45 0c2 0 4-2 4-4z"/>
<glyph glyph-name="folder-lock" unicode="&#60;" d="M356 245c-10 0-17-8-17-17l0-15 34 0 0 15c0 0 0 0 0 0l0 0c0 0 0 0 0 0 0 9-8 17-17 17z m84 144l-188 0c-10 12-20 25-23 28-2 6-8 10-14 10l-75 0c-5 0-9-3-13-6l-25-32-30 0c-16 0-28-13-28-28l0-248c0-15 12-28 28-28l368 0c16 0 28 13 28 28l0 248c0 15-12 28-28 28z m-22-248c0-3-3-5-5-5l-113 0c-2 0-4 2-4 5l0 67c0 3 2 5 4 5l14 0 0 15c0 23 19 42 42 42 23 0 41-19 41-42 0 0 0 0 0 0l0-15 16 0c2 0 4-2 4-5l0-67z"/>
<glyph glyph-name="foot" unicode="&#61;" d="M168 328c0-12-10-22-22-22-12 0-22 10-22 22 0 13 10 22 22 22 12 0 22-9 22-22z m214 104c0-24-20-44-45-44-25 0-45 20-45 44 0 25 20 45 45 45 25 0 45-20 45-45z m-110-14c0-15-12-28-28-28-15 0-28 13-28 28 0 16 13 28 28 28 16 0 28-12 28-28z m101-285c-7 11-11 25-11 39 0 13 3 25 9 35l-1 0c12 17 18 37 18 59 0 58-47 105-105 105-58 0-105-47-105-105 0-12 2-23 5-33 2-9 6-18 11-25l-1-1 76-131c8-24 31-41 57-41 34 0 60 27 60 60 0 14-5 27-13 38z m-166 242c0-12-10-22-22-22-12 0-22 10-22 22 0 13 10 23 22 23 12 0 22-10 22-23z"/>
<glyph glyph-name="foundation" unicode="&#62;" d="M403 123l-15 8c-1 0-3 0-3-1l-6-12c-1 0-1-1-1-1 1-1 1-1 2-2l15-8c0 0 0 0 1 0 1 0 1 0 2 1l6 12c0 0 0 1 0 1 0 1-1 1-1 2z m0 269l-15 9c-1 0-2 0-3-1l-7-11c0-1 0-1 0-2 0 0 1-1 1-1l15-9c1 0 1-1 2-1 0 0 1 1 2 2l6 11c0 0 0 1 0 1 0 1 0 1-1 2z m-30-253l-17 9 0 252 8-5c0-1 1-1 1-1 1 0 2 1 2 1l7 12c0 0 0 1 0 1 0 1-1 1-1 2l-7 3-7 5c-3 2-6 1-9-1l-62-34-62 34c0 0 0 0 0 0 0 0 0 1-1 1 0 0-1 0-2 0 0 0-1 0-2 0-1 0-1 0-2 0-1 0-1 0-2 0 0 0 0-1 0-1 0 0 0 0-1 0l-62-34-62 34c-3 2-7 2-9 1-3-2-5-4-5-7l0-274c0-3 2-5 4-6l67-37c0 0 0 0 0 0 1 0 1 0 1 0 1-1 3-1 4-1 2 0 3 0 4 1 0 0 1 0 1 0 0 0 0 0 0 0l62 34 63-34c0 0 0 0 0 0 0 0 0 0 0 0 1-1 3-1 4-1 2 0 3 0 5 1 0 0 0 0 0 0 0 0 0 0 0 0l62 34 5-2 4-3c1 0 1 0 1 0 1 0 2 1 2 1l7 12c0 1 0 2-1 3z m-219-29l-58 31 0 256 58-31z m134 0l-67 36 0 256 67-36z m144 114l-13 0c-1 0-2-1-2-3l0-27c0-1 1-2 2-2l13 0c1 0 2 1 2 2l0 27c0 2-1 3-2 3z m0-108l-13 0c-1 0-1 0-1 0l-2-1c-1-1-1-1-1-1l-6-12c0 0-1-1 0-1 0-1 0-1 1-2l8-4c2-1 4-2 6-2 5 0 10 3 10 11l0 10c0 1-1 2-2 2z m-5 262l-8 5c-2 0-3 0-4-1l-6-11c0-1-1-1 0-2 0 0 0-1 1-1l7-4 0-8c0-1 1-2 2-2l13 0c1 0 2 1 2 2l0 10c0 8-6 11-7 12z m5-47l-13 0c-1 0-2-1-2-2l0-27c0-1 1-2 2-2l13 0c1 0 2 1 2 2l0 27c0 1-1 2-2 2z m0-161l-13 0c-1 0-2-1-2-2l0-27c0-2 1-3 2-3l13 0c1 0 2 1 2 3l0 27c0 1-1 2-2 2z m0 107l-13 0c-1 0-2-1-2-2l0-27c0-1 1-2 2-2l13 0c1 0 2 1 2 2l0 27c0 1-1 2-2 2z"/>
<glyph glyph-name="graph-bar" unicode="&#63;" d="M236 204l-73 0c-4 0-7-4-7-8l0-112c0-4 3-8 7-8l73 0c4 0 8 4 8 8l0 112c0 5-4 8-8 8z m113 232l-73 0c-4 0-8-4-8-8l0-344c0-4 4-8 8-8l73 0c4 0 7 4 7 8l0 344c0 4-3 8-7 8z m113-105l-72 0c-5 0-8-3-8-7l0-240c0-4 3-8 8-8l72 0c4 0 8 4 8 8l0 240c0 4-4 7-8 7z m-340 0l-72 0c-4 0-8-3-8-7l0-240c0-4 4-8 8-8l72 0c5 0 8 4 8 8l0 240c0 4-3 7-8 7z"/>
<glyph glyph-name="graph-horizontal" unicode="&#64;" d="M442 302l-372 0c-4 0-8-3-8-8l0-77c0-4 4-8 8-8l372 0c4 0 8 4 8 8l0 77c0 5-4 8-8 8z m-154 119l0 0-218 0c-4 0-8-4-8-8l0-77c0-5 4-8 8-8l218 0 0 0c3 1 6 4 6 8l0 77c0 4-3 7-6 8z m49-237l-267 0c-4 0-8-3-8-8l0-77c0-4 4-8 8-8l267 0c5 0 8 4 8 8l0 77c0 5-3 8-8 8z"/>
<glyph glyph-name="graph-pie" unicode="&#91;" d="M277 446c-3 0-6-3-6-7 0 0 0 0 0-1l0 0 0-161c0-3 3-6 6-6l161 0 0 0c1 0 1 0 1 0 4 0 7 3 7 6-1 93-76 168-169 169z m130-208c0 4-3 7-7 7l-148 0c-4 0-7 3-7 7l0 147 0 0c0 1 0 1 0 1 0 4-3 7-6 7-1 0-1 0-1 0l0 0c0 0-1 0-2 0-94 0-170-76-170-171 0-94 76-170 170-170 95 0 171 76 171 170 0 1 0 2 0 2 0 0 0 0 0 0z"/>
<glyph glyph-name="graph-trend" unicode="&#93;" d="M436 101c14 0 25 11 25 25l0 260c0 14-11 25-25 25l-360 0c-14 0-25-11-25-25l0-260c0-14 11-25 25-25z m-26 50l-308 0 0 210 308 0z m-197 24c-5 0-10 1-13 5l-25 25-30-25c-8-7-19-6-26 2-6 8-5 19 3 25l43 36c7 6 17 5 24-1l21-21 46 72c3 5 9 8 16 8 7-1 12-4 15-10l27-58 53 92c5 9 15 12 24 7 9-5 12-16 7-24l-70-123c-3-5-9-9-16-9-7 1-13 5-16 11l-28 59-40-63c-3-5-8-8-13-8-1 0-2 0-2 0z"/>
<glyph glyph-name="guide-dog" unicode="&#94;" d="M204 384l60-60c0 0 0 0 1-1l0 0 0 0c2-1 4-2 7-2 5 0 10 4 10 10 0 4-2 7-5 9l-60 60c-2 2-4 3-8 3-5 0-10-4-10-10 0-4 2-7 5-9z m68-209l0 129-138 0c-1 0-2-1-2-1l-56 33 0 0c-2 0-4 1-6 1-8 0-14-6-14-13 0-5 3-9 6-11l0 0 57-33c-2-10-3-22-3-34 0-27 5-50 13-56l-32-56c-2-3-4-7-4-11 0-10 8-18 18-18 6 0 11 3 15 7l0 0 37 65 38-65 0 0c4-4 9-7 14-7 10 0 18 8 18 18 0 4-1 8-3 11l-25 42c13-1 27-1 41-1 9 0 17 0 26 0z m90 14c6 3 11 15 13 32l-83 83 0-116-31-54c-2-3-4-7-4-11 0-10 8-18 18-18 6 0 11 3 14 7l1 0 37 65 38-65 0 0c3-4 8-7 14-7 10 0 18 8 18 18 0 4-1 8-4 11z m94 110c0 4-2 8-6 10l-20 20 0 21c0 8-4 14-11 18l-26 15 0-1c-2 2-4 3-7 3l-12 22-26-45-42-42 71-72c0 6 0 11-1 16l14 14 51 0 0 0 11 11 0 0c2 3 4 6 4 10z"/>
<glyph glyph-name="hearing-aid" unicode="&#95;" d="M243 366c-58 0-104-47-104-106 0-9 7-17 17-17 9 0 17 8 17 17 0 40 31 72 70 72 39 0 71-32 71-72 0-8-2-16-4-23-5-8-15-25-21-32-1-1-2-3-3-4-9-10-19-22-18-48 0-16 0-32-1-37l0-2c-1-5-2-10-23-11-4 0-8-2-11-5-4-4-5-8-5-13 0-9 8-16 17-16l1 0c32 1 50 14 55 40 1 8 1 18 1 45-1 13 2 16 9 24 2 2 3 3 5 5 10 12 24 38 24 38 0 1 1 2 1 3 4 11 7 24 7 36 0 59-47 106-105 106z m24-108c0-8 6-15 14-15 8 0 15 7 15 15 0 29-24 52-53 52-29 0-52-23-52-52 0-8 6-15 14-15 8 0 14 7 14 15 0 13 11 24 24 24 13 0 24-11 24-24z m-97-52l-70-71c-3-3-5-7-5-11 0-5 2-9 5-12 3-3 7-4 11-4 4 0 8 1 11 4l71 71c3 3 4 7 4 11 0 5-1 9-4 12-6 6-17 6-23 0z m133 192c0 0-1 0-1 0l0 0-6 0 0 0c-3-1-6-3-6-7l0 0 0-11 0 0c0-3 3-6 6-6l0 0 6 0 0 0c0 0 1 0 1 0 24 0 44-20 44-44l0 0 0-7 0 0c1-3 3-6 7-6l0 0 11 0 0 0c3 1 6 3 6 6l0 0 0 7 0 0c0 37-31 68-68 68z m114-68c-1 62-52 113-114 113 0 0-1 0-1 0l0 0-6 0 0 0c-3 0-6-3-6-6l0 0 0-12 0 0c0-3 3-5 6-6l0 0 6 0 0 0c0 0 1 0 1 0 49 0 89-40 90-89l0 0 0-7 0 0c0-3 3-6 6-6l0 0 12 0 0 0c3 1 5 3 5 6l1 0 0 7z"/>
<glyph glyph-name="heart" unicode="&#96;" d="M346 443c-36 0-69-17-90-44-21 27-54 44-90 44-63 0-114-51-114-114-1-68 32-108 58-140l6-7c31-39 128-108 132-111 2-1 5-2 8-2 3 0 6 1 8 2 4 3 101 72 132 111l6 7c26 32 59 72 59 140-1 63-52 114-115 114z"/>
<glyph glyph-name="home" unicode="&#123;" d="M428 318l-167 129c-4 4-11 4-16 0l-161-129c-3-2-5-6-5-10l0-233c0-7 6-13 13-13l96 0c7 0 13 6 13 13l0 143 110 0 0-143c0-7 6-13 13-13l96 0c7 0 13 6 13 13l0 233c0 4-2 8-5 10z"/>
<glyph glyph-name="html5" unicode="&#124;" d="M106 426l27-306 123-34 123 34 27 306-300 0z m243-73l-2-19 0-8-144 0 3-38 137 0-1-11-9-98 0-7-77-21 0 0-77 21-5 59 37 0 3-30 42-11 0 0 0 0 42 11 4 49-130 0-9 103-1 11 188 0z"/>
<glyph glyph-name="indent-less" unicode="&#125;" d="M416 434l-320 0c-10 0-17-7-17-17l0-16c0-10 7-17 17-17l320 0c10 0 17 7 17 17l0 16c0 10-7 17-17 17z m0-306l-320 0c-10 0-17-7-17-17l0-16c0-10 7-17 17-17l320 0c10 0 17 7 17 17l0 16c0 10-7 17-17 17z m17 85c0 10-7 17-17 17l-199 0c-9 0-17-7-17-17l0-16c0-10 8-17 17-17l199 0c10 0 17 7 17 17z m0 101c0 10-7 18-17 18l-199 0c-9 0-17-8-17-18l0-16c0-9 8-17 17-17l199 0c10 0 17 8 17 17 0 0 0 0 0 0z m-354-58c0-1 0-2 1-3l0 0 64-36c0-1 1-1 2-1 1 0 3 1 3 3l0 0 0 74c0 2-2 3-3 3-1 0-2 0-2-1l-64-36 0-1c-1 0-1-1-1-2z"/>
<glyph glyph-name="indent-more" unicode="&#126;" d="M416 434l-320 0c-10 0-17-7-17-17l0-16c0-10 7-17 17-17l320 0c10 0 17 7 17 17l0 16c0 10-7 17-17 17z m0-306l-320 0c-10 0-17-7-17-17l0-16c0-10 7-17 17-17l320 0c10 0 17 7 17 17l0 16c0 10-7 17-17 17z m17 85c0 10-7 17-17 17l-199 0c-9 0-17-7-17-17l0-16c0-10 8-17 17-17l199 0c10 0 17 7 17 17z m0 101c0 10-7 18-17 18l-199 0c-9 0-17-8-17-18l0-16c0-9 8-17 17-17l199 0c10 0 17 8 17 17 0 0 0 0 0 0z m-351-98c0 0 1 0 2 1l63 36 0 1c1 0 2 1 2 2 0 1-1 2-2 3l0 0-63 36c-1 1-2 1-2 1-2 0-3-1-3-3l0 0 0-74c0-2 1-3 3-3z"/>
<glyph glyph-name="info" unicode="&#92;" d="M256 448c-106 0-192-86-192-192 0-106 86-192 192-192 106 0 192 86 192 192 0 106-86 192-192 192z m20-299c0-3-3-6-7-6l-26 0c-4 0-7 3-7 6l0 124c0 4 3 7 7 7l26 0c4 0 7-3 7-7z m-20 159c-13 0-23 10-23 23 0 13 10 23 23 23 13 0 23-10 23-23 0-13-10-23-23-23z"/>
<glyph glyph-name="italic" unicode="&#57344;" d="M310 388c0 7-6 13-13 13l-24 0c-7 0-13-6-13-13l0 0-58-261c0 0 0 0 0 0l0 0 0 0c0-1 0-2 0-3 0-7 5-12 12-13l0 0 25 0c7 0 12 5 13 12l0 0 58 261 0 0c0 1 0 2 0 4z"/>
<glyph glyph-name="key" unicode="&#57345;" d="M479 282c-1 2-1 4-3 6-2 2-5 3-7 3l-202 0c-13 51-60 89-115 89-65 0-119-54-119-119 0-66 54-119 119-119 59 0 107 43 117 99l45 0 0-65 0 0c0-5 5-9 10-9 0 0 0 0 0 0l0 0 31 0 0 0c5 0 10 4 10 9l0 0 0 65 26 0 0-100 0 0c0-5 4-9 9-9 0 0 0 0 0 0l32 0c0 0 0 0 0 0 5 0 9 4 10 9l0 0 0 100 27 0 0 0c2 0 5 0 7 2 2 2 3 5 3 7l0 0 0 32 0 0z m-327-90c-37 0-68 30-68 68 0 38 31 68 68 68 38 0 68-30 68-68 0-38-30-68-68-68z"/>
<glyph glyph-name="laptop" unicode="&#57346;" d="M72 165l368 0c14 0 26 12 26 26l0 226c0 14-12 25-26 25l-368 0c-14 0-26-11-26-25l0-226c0-14 12-26 26-26z m25 226l318 0 0-175-318 0z m391-251l-464 0c-7 0-12-5-12-12l0-28c0-3 1-6 3-8l17-18c2-3 5-4 9-4l429 0c3 0 6 1 9 3l17 18c3 3 4 6 4 9l0 28c0 7-5 12-12 12z m-188-41c0-1-1-3-2-3l-84 0c-1 0-2 2-2 3l0 12c0 1 1 2 2 2l84 0c1 0 2-1 2-2z"/>
<glyph glyph-name="layout" unicode="&#57347;" d="M142 356l228 0 0-119-228 0z m5-144l57 0 0-56-57 0z m165 0l57 0 0-56-57 0z m-82 0l56 0 0-56-56 0z m193 220l-334 0c-13 0-23-10-23-23l0 0 0-307 0 0c0-13 10-22 23-22l334 0c13 0 23 9 23 22l0 0 0 307c0 13-10 23-23 23z m-27-301l-280 0 0 250 280 0 0-250z"/>
<glyph glyph-name="lightbulb" unicode="&#57348;" d="M411 415l0 0 0 0c3 3 3 8 0 11l-10 10c-3 3-8 3-11 0l0 0-45-45c-3-3-3-7 0-10l11-11 0 0c2-3 7-3 10 0z m-162-2l0 0 14 0 0 0c4 0 8 3 8 7l0 0 0 64c0 5-3 8-8 8l0 0-14 0 0 0c-5 0-8-3-8-8l0-64 0 0c0-4 4-7 8-7z m220-106c0 4-3 7-7 8l0 0-64 0c-4 0-8-4-8-8l0-15c0-4 4-7 8-7l64 0 0 0c4 0 7 3 7 7z m-213 81c-60 0-109-49-109-109 0-23 8-45 20-63l0 0c17-25 27-59 27-96 2-2 4-4 7-4 0 0 0 0 1 0l0 0 108 0 0 0c0 0 1 0 1 0 3 0 5 2 7 5 0 38 12 73 29 99 11 17 18 37 18 59 0 60-49 109-109 109z m55-336c0 0-1 0-1 0l0 0-108 0 0 0c-1 0-1 0-1 0-4 0-8-3-8-7l0-17c0-5 4-8 8-8 0 0 0 0 1 0l0 0 108 0 0 0c0 0 1 0 1 0 4 0 7 3 7 8l0 17c0 4-3 7-7 7z m0 49c0 0-1 0-1 0l0 0-108 0 0 0c-1 0-1 0-1 0-4 0-7-4-8-8 0 0 0 0 0 0l0-17c0-4 4-8 8-8 0 0 0 0 1 1l0-1 108 0 0 1c0-1 1-1 1-1 4 0 7 4 7 8l0 17c0 4-3 8-7 8z m-197 208l0 0-64 0c-4 0-7-3-7-8l0-14c0-5 3-8 7-8l64 0 0 0c4 0 8 4 8 8l0 14c0 4-4 8-8 8z m-11 109l46-46 0 0c3-2 7-2 10 1l0 0 11 10c2 3 2 8 0 10l0 0-46 46c-2 3-7 3-10 0l-11-11c-2-3-2-7 0-10z"/>
<glyph glyph-name="like" unicode="&#57349;" d="M422 131c0 1 0 2 0 2l0 138 0 0c0 0 0 0 0 0 0 7-6 13-13 13 0 0 0 0-1 0l-24 0 0 0c-7 0-13-6-13-13l0 0 0-141 0 0c1-6 6-11 13-11l0-1 25 0c8 0 13 6 13 13z m-76-21l0 187c0 0 0 0 0 0 0 7-6 13-13 13-1 0-1 0-1 0l-51 0c-1 1-2 2-3 3l-50 87 0 0c-6 9-15 15-26 15-16 0-29-13-29-29l-1 0 0-76-70 0 0 0c-7-1-12-6-12-13l0 0 0-144 0 0c0-2 0-4 2-5l0 0 50-50 0 0c1-1 3-2 5-1l184 0c1 0 1 0 2 0 7 0 12 5 13 12l0 0 0 0c0 0 0 0 0 1 0 0 0 0 0 0z m-241 43l0-1 0 1z"/>
<glyph glyph-name="link" unicode="&#57350;" d="M403 403c-39 38-101 40-141 3l0 0-52-51c-9-10-16-20-21-32-10-4-20-10-28-18l0 1-52-52c-40-40-40-105 0-145 40-40 105-40 145 0l52 52-1 0c8 8 14 18 18 28 12 5 22 12 32 21l52 52-1 0c37 40 35 102-3 141z m-184-257l0 0c-20-20-53-20-73 0-20 20-20 53 0 73l38 38c4-17 13-33 26-47 14-13 30-22 47-26z m28 101c-9 9-14 21-15 33 12-1 24-6 33-15 9-9 14-21 15-33-12 1-24 6-33 15z m122 49l-3-3 0 0-38-38c-4 17-13 33-26 47-14 13-30 22-47 26l38 38c0 0 0 0 0 0l0 0 3 3 0 0c21 17 51 16 70-3 19-19 20-49 3-70z"/>
<glyph glyph-name="list" unicode="&#57351;" d="M90 357l0 0c0-6 5-12 11-12l0 0 310 0 0 0c6 0 11 6 11 12l0 0 0 54c0 6-5 11-11 11l-310 0c-6 0-11-5-11-11 0-1 0-1 0-1z m321-63l-310 0c-6 0-11-5-11-11 0 0 0-1 0-1l0-53 0 0c0-6 5-11 11-11l0 0 310 0 0 0c6 0 11 5 11 11l0 0 0 54c0 6-5 11-11 11z m0-127l-310 0c-6 0-11-6-11-12 0 0 0 0 0-1l0-53 0 0c0-6 5-11 11-11l0 0 310 0 0 0c6 0 11 5 11 11l0 0 0 54c0 6-5 12-11 12z"/>
<glyph glyph-name="list-bullet" unicode="&#57352;" d="M454 409l-320 0c-9 0-17-8-17-18l0-16c0-9 8-17 17-17l320 0c10 0 18 8 18 17l0 16c0 10-8 18-18 18z m0-128l-320 0c-9 0-17-7-17-17l0-16c0-10 8-17 17-17l320 0c10 0 18 7 18 17l0 16c0 10-8 17-18 17z m0-127l-320 0c-9 0-17-8-17-17l0-16c0-10 8-18 17-18l320 0c10 0 18 8 18 18l0 16c0 9-8 17-18 17z m-363 229c0-14-11-25-25-25-14 0-26 11-26 25 0 15 12 26 26 26 14 0 25-11 25-26z m0-122c0-14-11-25-25-25-14 0-26 11-26 25 0 14 12 26 26 26 14 0 25-12 25-26z m0-132c0-15-11-26-25-26-14 0-26 11-26 26 0 14 12 25 26 25 14 0 25-11 25-25z"/>
<glyph glyph-name="list-number" unicode="&#57353;" d="M74 397l0-40 12 0 0 55-11 0-17-17 7-7z m-8-123c4 0 9-2 9-7 0-7-7-12-29-29l0-9 41 0 0 10-23 0c15 11 22 19 22 28 0 11-9 18-21 18-7 0-15-3-21-9l7-8c4 4 8 6 15 6z m9-145c6 1 12 6 12 13 0 9-8 15-21 15-10 0-16-4-21-9l6-7c4 3 9 5 14 5 6 0 10-2 10-6 0-4-4-6-10-6-2 0-6 0-7 0l0-10c1 0 5 0 7 0 8 0 11-2 11-7 0-4-4-7-10-7-6 0-12 3-15 7l-7-8c4-5 12-9 22-9 13 0 22 7 22 16 0 8-8 13-13 13z m375 281l-320 0c-9 0-17-8-17-17l0-16c0-10 8-18 17-18l320 0c10 0 18 8 18 18l0 16c0 9-8 17-18 17z m0-127l-320 0c-9 0-17-8-17-18l0-16c0-9 8-17 17-17l320 0c10 0 18 8 18 17l0 16c0 10-8 18-18 18z m0-128l-320 0c-9 0-17-8-17-17l0-16c0-10 8-18 17-18l320 0c10 0 18 8 18 18l0 16c0 9-8 17-18 17z"/>
<glyph glyph-name="list-thumbnails" unicode="&#57354;" d="M411 167l-182 0 0 0c0 0 0 0 0 0-6 0-11-6-11-12 0 0 0 0 0-1l0-53 0 0c0-6 5-11 11-11l0 0 182 0 0 0c6 0 11 5 11 11l0 53c0 1 0 1 0 1 0 6-5 12-11 12z m-256 0l-54 0c-6 0-11-6-11-12l0-54c0-6 5-11 11-11l54 0c6 0 12 5 12 11l0 54c0 6-6 12-12 12z m256 128l-182 0 0 0c0 0 0 0 0 0-6 0-11-6-11-12 0 0 0 0 0-1l0-53 0 0c0-6 5-11 11-11l0 0 182 0 0 0c6 0 11 5 11 11l0 53c0 1 0 1 0 1 0 6-5 12-11 12z m-256 0l-54 0c-6 0-11-6-11-12l0-54c0-6 5-11 11-11l54 0c6 0 12 5 12 11l0 54c0 6-6 12-12 12z m63 62l0 0c0-6 5-12 11-12l0 0 182 0 0 0c6 0 11 6 11 12l0 53c0 0 0 0 0 1 0 6-5 11-11 11l0 0-182 0 0 0c0 0 0 0 0 0-6 0-11-5-11-11 0-1 0-1 0-1l0-53z m-63 65l-54 0c-6 0-11-5-11-11l0-54c0-6 5-12 11-12l54 0c6 0 12 6 12 12l0 54c0 6-6 11-12 11z"/>
<glyph glyph-name="lock" unicode="&#57355;" d="M420 286l-45 0 0 43c0 0 0 0 0 0 0 67-54 122-121 122-67 0-122-55-122-122l0-43-40 0c-8 0-14-6-14-14l0-197c0-8 6-14 14-14l328 0c8 0 14 6 14 14l0 197c0 8-6 14-14 14z m-216 43c0 28 22 50 50 50 27 0 49-22 50-49 0 0 0 0 0 0l0 0c0-1 0-1 0-1l0-43-100 0z"/>
<glyph glyph-name="loop" unicode="&#57356;" d="M429 391c0 3-2 6-5 7-2 1-5 1-8 0l-30-22-2-2c-33 33-78 53-128 53-68 0-127-37-158-93l0 0c-3-6-1-13 5-17 0 0 0 0 0 0l42-24c6-3 14-1 17 5 0 0 0 0 0 0 19 33 54 55 94 55 25 0 48-9 66-23l-5-4-30-21c-3-2-4-5-3-8 0-3 2-5 5-6l130-44c2-1 5-1 7 1 2 1 3 3 3 6z m-20-196c0 0 0 0 0 0l-42 24c-6 3-14 1-17-5 0 0 0 0 0 0-19-33-54-55-94-55-25 0-48 9-66 23l5 4 30 21c3 2 4 5 3 8 0 3-2 5-5 6l-130 44c-2 1-5 1-7-1-2-1-3-3-3-6l0-137c0-3 2-6 5-7 2-1 5-1 8 0l30 22 2 2c33-33 78-53 128-53 68 0 127 37 158 93l0 0c3 6 1 13-5 17z"/>
<glyph glyph-name="magnifying-glass" unicode="&#57357;" d="M291 459c-91 0-164-74-164-164 0-31 8-60 23-85l-79-79 0 0c-8-8-14-20-14-33 0-25 21-45 46-45 12 0 24 5 32 14l0-1 82 82c22-11 47-17 74-17 90 0 164 73 164 164 0 90-74 164-164 164z m1-263c-57 0-103 45-103 102 0 56 46 102 103 102 56 0 102-46 102-102 0-57-46-102-102-102z"/>
<glyph glyph-name="mail" unicode="&#57358;" d="M440 409l-368 0c-7 0-13-6-13-13l0-27c0-1 1-2 2-3l194-110c0-1 1-1 1-1 1 0 2 0 2 1l188 110c1 1 3 2 5 3 1 1 2 1 2 3l0 24c0 7-6 13-13 13z m11-80c-1 1-2 1-3 0l-106-62c-1 0-1-1-2-2 0-1 1-2 1-3l106-115c1 0 2-1 3-1 0 0 1 1 1 1 1 0 2 1 2 3l0 177c0 1 0 2-2 2z m-140-83c-1 1-2 1-4 1l-42-25c-5-3-12-3-17-1l-37 22c-1 1-3 0-4-1l-142-131c-1-1-1-2-1-3 0-1 1-2 1-3 3-1 5-2 7-2l364 0c2 0 3 1 3 2 1 2 1 3 0 4z m-135 12c1 1 1 2 1 3 0 1-1 2-2 2l-111 64c-1 1-2 0-4 0-1-1-1-2-1-3l0-167c0-1 1-2 2-3 0 0 1 0 1 0 1 0 2 0 2 1z"/>
<glyph glyph-name="male" unicode="&#57359;" d="M295 410c0-23-19-42-42-42-24 0-43 19-43 42 0 23 19 42 43 42 23 0 42-19 42-42z m38-54l0 0-152 0 0 0c-11 0-20-9-20-20l0 0 0-120 0 0c0-4 2-9 6-12 7-7 18-7 25 0 3 3 5 8 5 12l0 0 0 84 0 0c0 3 3 6 6 6 3 0 5-3 5-6l0 0 0-219c0-12 10-21 21-21 12 0 21 9 21 21l0 110 0 0c0 3 3 6 6 6 3 0 6-3 6-6l0 0 0-110c0-12 9-21 21-21 11 0 21 9 21 21l0 219c0 3 2 6 5 6 3 0 6-3 6-6l0-84 0 0c0-4 2-9 5-12 7-7 19-7 26 0 3 3 5 8 5 12l0 0 0 120c0 11-8 19-18 20z"/>
<glyph glyph-name="male-female" unicode="&#57360;" d="M157 411c0-23-19-42-43-42-23 0-42 19-42 42 0 23 19 42 42 42 24 0 43-19 43-42z m38-54l0 0-152 0 0 0c-11 0-20-8-20-19l0 0 0-120 0 0c0-5 2-10 5-13 7-7 19-7 25 0 4 3 6 8 6 13l0 0 0 83 0 0c0 3 2 6 5 6 3 0 6-3 6-6l0 0 0-219c0-12 9-21 21-21 11 0 21 9 21 21l0 110 0 0c0 3 2 6 6 6 3 0 5-3 5-6l1 0 0-110c0-12 9-21 20-21 12 0 21 9 21 21l0 219c0 3 3 6 6 6 3 0 6-3 6-6l0-83 0 0c0-5 2-10 5-13 7-7 18-7 25 0 4 3 5 8 5 13l0 0 0 120c0 10-7 18-17 19z m218 54c0-24-19-43-43-43-23 0-42 19-42 43 0 23 19 42 42 42 24 0 43-19 43-42z m76-176l-28 106c0 0 0 0 0 0l-1 2 0 0c-3 8-10 14-19 14 0 0 0 0 0 0l0 0-134 0 0 0c-9 0-16-6-19-14l0 0 0-2c0 0-1 0-1 0l-28-106 0 0c0-1 0-2 0-3 0-10 8-18 18-18 8 0 14 5 17 11l0 0 21 78 0 0 0 0c1 2 3 4 6 4 2 0 4-2 5-4l0 0 0-1c0 0 0 0 0 0 0-1 0-1 0-1l0-1-33-124c-1-1-1-2-1-4l0 0 0 0c0 0 0 0 0 0 0-6 4-10 10-10l24 0 0-82c0-12 10-21 21-21 12 0 21 9 21 21l0 82 12 0 0-82c0-12 9-21 21-21 12 0 21 9 21 21l0 82 25 0c5 0 9 4 9 10 0 0 0 0 0 0l0 0 0 0c0 2 0 3-1 4l-33 124 0 0c0 1 0 1 0 2 0 3 2 5 6 5 2 0 4-2 5-4l0 0 21-78 0 0c3-6 9-11 17-11 10 0 18 8 18 18 0 1 0 2 0 3z"/>
<glyph glyph-name="male-symbol" unicode="&#57361;" d="M427 418c0 0 0 0 0 0 0 5-3 8-8 8l0 0-106 0 0 0c-5 0-8-3-8-8l0-35c0-4 3-8 8-8l0 0 26 0-45-45c-21 15-47 24-75 24-74 0-134-60-134-134 0-74 60-134 134-134 74 0 134 60 134 134 0 27-8 53-23 74l46 46 0-28c0-5 4-8 8-8l35 0c5 0 8 3 8 8 0 0 0 0 0 0l0 106z m-208-281c-46 0-83 37-83 83 0 46 37 83 83 83 46 0 83-37 83-83 0-46-37-83-83-83z"/>
<glyph glyph-name="map" unicode="&#57362;" d="M471 471c0 0 0 0 0 0 0 8-6 14-14 14l0 0c0 0 0 0 0 0 0 0 0 0 0 0l-254 0 0 0-162-161 0 0 0-283 0 0c0 0 0 0 0 0 0-8 6-14 14-14l402 0c7 0 12 4 14 11l0 0 0 2c0 0 0 0 0 1 0 0 0 0 0 0z m-125-37l74 0 0-125-93 92z m-143-124l0 0c7 0 14 6 14 14 0 0 0 0 0 0l0 110 100 0-139-240-86 85 0 31z m-111-232l0 165 72-72-53-93z m48 0l174 300 106-106 0-194z m178 201c-34 0-62-28-62-62 0-14 4-26 12-36l40-69c0-1 0-1 1-1l0-1 0 0c2-2 5-4 9-4 3 0 6 1 8 4l0 0 1 0c0 1 1 2 1 3l39 67c8 11 12 23 12 37 0 34-27 62-61 62z m-1-93c-17 0-30 13-30 30 0 17 13 31 30 31 17 0 30-14 30-31 0-17-13-30-30-30z"/>
<glyph glyph-name="marker" unicode="&#57363;" d="M256 459c-80 0-144-65-144-145 0-32 10-62 28-86l93-161c0-1 1-2 2-3l0 0 0 0c5-6 12-11 21-11 8 0 15 4 20 10l0-1 1 2c1 2 2 4 3 6l91 157c18 24 29 55 29 87 0 80-64 145-144 145z m-1-218c-40 0-72 32-72 71 0 40 32 71 72 71 39 0 71-31 71-71 0-39-32-71-71-71z"/>
<glyph glyph-name="megaphone" unicode="&#57364;" d="M140 366c-42 0-77-34-77-76 0-43 35-77 77-77 7 0 13 5 14 12l0 0 0 127c0 8-6 14-14 14z m309 62c0 8-7 14-14 14-4 0-6-1-9-3l-122-70-111 0c-7 0-14-6-14-14l0-132 1 0c0-7 6-13 13-13l98 0 134-77c3-2 6-4 10-4 7 0 14 7 14 14 0 1-1 1-1 2l1 0 0 283 0 0c0 0 0 0 0 0z m-161-323l0 0c0 0 0 0-1 0 0 0 0 1 0 1l-42 73 0 0c-3 3-6 5-10 6l0 0-37 0 0 0c-2 0-4-1-6-2-6-4-9-12-5-19 0-1 1-1 1-1l0-1 50-85c0 0 0 0 0 0 0 0 0 0 0 0l0-1 0 0c4-6 12-8 19-5 0 1 1 1 2 2l0 0 25 14 0 1c5 4 7 11 4 17z"/>
<glyph glyph-name="microphone" unicode="&#57365;" d="M386 260l0 0 0 1c0 0 0 0 0 0l0 73c0 11-8 19-19 19-11 0-19-8-19-19l0-73c0-51-41-92-92-92-51 0-92 41-92 92l0 73c0 11-8 19-19 19-11 0-19-8-19-19l0-74 0 0c0-65 48-119 111-128l0-28-69 0 0 0c-10 0-19-9-19-19 0-11 9-19 19-20l0 0 176 0c10 0 19 9 19 20 0 10-9 19-19 19l-69 0 0 28c63 9 111 63 111 128z m-196 1c0-36 30-65 66-65 36 0 66 29 66 65 0 1 0 1 0 2l0 0 0 119 0 0c-1 36-30 65-66 65-36 0-65-29-66-65l0 0 0-119 0 0c0-1 0-1 0-2z"/>
<glyph glyph-name="minus" unicode="&#57366;" d="M453 315l-394 0c-6 0-10-5-10-11l0-96c0-6 4-11 10-11l394 0c6 0 10 5 10 11l0 96c0 6-4 11-10 11z"/>
<glyph glyph-name="minus-circle" unicode="&#57367;" d="M345 283l-178 0c-3 0-5-2-5-5l0-44c0-3 2-5 5-5l178 0c3 0 5 2 5 5l0 44c0 3-2 5-5 5z m-89 114c78 0 141-63 141-141 0-78-63-141-141-141-78 0-141 63-141 141 0 78 63 141 141 141m0 51c-106 0-192-86-192-192 0-106 86-192 192-192 106 0 192 86 192 192 0 106-86 192-192 192z"/>
<glyph glyph-name="mobile" unicode="&#57368;" d="M355 422l-198 0 0 0c-7 0-13-6-13-12l0-308c0-6 6-12 13-12l0 0 198 0c7 0 13 5 13 12l0 308c0 7-6 12-13 12z m-99-319c-7 0-12 6-12 12 0 7 5 13 12 13 7 0 13-6 13-13 0-6-6-12-13-12z m61 38l-122 0 0 230 122 0 0-230z"/>
<glyph glyph-name="mobile-signal" unicode="&#57369;" d="M355 359l-198 0 0 0c-7 0-13-6-13-13l0-307c0-7 6-12 13-13l0 0 198 0c7 0 13 6 13 13l0 307c0 7-6 13-13 13z m-99-319c-7 0-12 5-12 12 0 7 5 13 12 13 7 0 13-6 13-13 0-7-6-12-13-12z m61 37l-122 0 0 231 122 0 0-231z m39 355c3 2 3 6 0 9l0 0-5 6 0 0c-52 52-137 52-190-1 0 0 0 0 0 0l0 0-5-5c0 0 0 0 0 0 0 0 0 0 0 0l0 0 0-1c-3-3-3-7 0-10l0 0 10-9 0 0c3-3 7-3 10 0l0 0 5 5 0 0c0 0 0 0 0 0 42 42 109 42 150 1l0 0 5-5 0 0 0 0 0-1 1 0c3-2 7-2 10 1l0 0 0 0 0 0 0 0 9 10z m-37-29l0 0-6 6 0 0c-31 31-82 31-114 0 0-1 0-1 0-1l0 0-6-5 1 0c-3-3-3-8 0-10l0-1 10-9 0 0c3-2 7-2 9 0l0 0 6 5 0 0c0 0 0 0 0 1 21 20 54 20 74 0l0 0 5-5c0 0 0 0 0 0l1-1 0 0c3-2 7-2 10 1l0 0 0 0 10 10 0 0c2 3 2 6 0 9z"/>
<glyph glyph-name="monitor" unicode="&#57370;" d="M462 445l-412 0c-16 0-29-12-29-28l0-252c0-16 13-29 29-29l155 0 0-44-48 0c-5 0-8-4-8-8l0-9c0-5 3-8 8-8l194 0c4 0 8 3 8 8l0 9c0 4-4 8-8 8l-44 0 0 44 155 0c16 0 29 13 29 29l0 252c0 16-13 28-29 28z m-390-258l0 207 368 0 0-207z"/>
<glyph glyph-name="mountains" unicode="&#57371;" d="M488 112l0 0-170 295 0 0c-4 8-12 13-21 13-9 0-17-6-21-14l-113-196-28 48 0 0c-2 4-6 7-11 7-5 0-9-3-11-7l-81-140 0 0 0-1-8-13c-1-2-2-3-2-5 0-4 4-7 8-7 0 0 1 0 2 1l0-1 445 0 0 0c7 1 13 7 13 14 0 2-1 4-2 6z"/>
<glyph glyph-name="music" unicode="&#57372;" d="M431 442l-262 0c-9 0-17-7-17-16l0-246c-6 1-12 2-18 2-38 0-69-25-69-56 0-31 31-56 69-56 38 0 69 25 69 56l0 236 193 0 0-135c-6 1-12 2-18 2-38 0-69-25-69-56 0-31 31-56 69-56 38 0 69 25 69 56l0 253c0 9-7 16-16 16z"/>
<glyph glyph-name="next" unicode="&#57373;" d="M454 116l0 280c0 0 0 0 0 0 0 0 0 0 0 0l0 2 0 0c0 6-6 11-13 11 0 0 0 0 0 0l-23 0c-1 0-1 1-1 1-8 0-13-6-13-13 0-1 0-2 0-2l0-119-171 99c-2 1-4 2-6 2-5 0-9-3-9-8l0 0 0-78-146 84c-1 1-3 2-6 2-5 0-8-3-9-8l0 0 0-226c0-4 4-8 9-8 3 0 5 1 7 2l145 84 0-78c0-4 4-8 9-8 2 0 5 1 6 2l171 99 0-120 0 0c0 0 0 0 0-1 0-7 6-13 13-13l25 0 0 1c7 0 13 5 13 13 0 0-1 0-1 0z"/>
<glyph glyph-name="no-dogs" unicode="&#57374;" d="M256 448c-106 0-192-86-192-192 0-106 86-192 192-192 106 0 192 86 192 192 0 106-86 192-192 192z m0-333c-78 0-141 63-141 141 0 34 12 66 33 90l65-65-25 0 0 0c0 0 0 0 0-1l-31 18 0 0c-1 1-3 1-4 1-4 0-7-3-7-7 0-3 1-5 3-6l0 0 32-18c-2-6-2-12-2-19 0-15 3-27 7-31l-17-31c-2-1-3-3-3-6 0-5 5-10 10-10 4 0 6 2 8 4l0 0 21 36 21-36 0 0c2-2 4-4 8-4 5 0 10 5 10 10 0 3-1 5-3 6l-13 23c7 0 15 0 23 0 7 0 14 0 21 0l-13-23c-2-1-2-3-2-6 0-5 4-10 10-10 3 0 6 2 7 4l1 0 16 28 21-21 4-7 0 0c2-2 4-3 6-3l24-24c-24-21-56-33-90-33z m108 51l-47 47-3 4c5 3 9 16 9 32 0 3-1 7-1 10l8 8 28 0 0 0 6 6 0 0c1 1 2 3 2 5 0 2-1 4-3 6l-11 11 0 11c0 4-2 8-6 10l-14 8 0 0c0 0-1 0-1 0l-10 17-17-30 1 0-30-30-26 0-83 83c24 21 56 33 90 33 78 0 141-63 141-141 0-34-12-66-33-90z"/>
<glyph glyph-name="no-smoking" unicode="&#57375;" d="M336 277c0 0 0 0 0 0l-4 0c0 0 0 0 0 0-3 0-6-3-6-6l0-30 0-1 0 0c1-3 3-5 6-5l4 0 0 0c0 0 0 0 0 0 3 0 5 2 5 5l0 0 0 31c0 3-2 6-5 6z m21 0c0 0 0 0 0 0l-3 0c0 0 0 0 0 0-3 0-6-3-6-6l0 0 0-31 0 0c1-3 3-5 6-5l3 0 0 0c0 0 0 0 0 0 3 0 6 2 6 5l0 0 0 31c0 3-2 6-6 6z m-101 171c-106 0-192-86-192-192 0-106 86-192 192-192 106 0 192 86 192 192 0 106-86 192-192 192z m0-333c-78 0-141 63-141 141 0 34 12 66 33 90l69-69-62 0c0 0 0 0 0 0-4 0-6-3-6-6l0 0 0 0 0-30c0-3 2-6 6-6l104 0 87-87c-24-21-56-33-90-33z m108 51l-69 69 18 0c3 0 6 3 6 6l0 30 0 0c0 3-3 6-6 6 0 0 0 0 0 0l-60 0-87 87c24 21 56 33 90 33 78 0 141-63 141-141 0-34-12-66-33-90z"/>
<glyph glyph-name="page" unicode="&#57376;" d="M411 448l0 0 0 21c0 4-4 8-9 8l-168 0-133-132 0-302c0-4 4-8 9-8l292 0c5 0 9 4 9 8l0 13 0 0z m-259-362l0 241 91 0c5 0 9 4 9 9l0 90 108 0 0-340z"/>
<glyph glyph-name="page-add" unicode="&#57377;" d="M377 110l-33 0c-5 0-9-4-9-9l0 0 0-15-208 0 0 241 91 0c5 0 9 4 9 9l0 90 108 0 0-105 0 0c0-5 4-9 9-9l33 0c5 0 9 4 9 9l0 0c0 0 0 0 0 0l0 127 0 0 0 21c0 4-4 8-9 8l-168 0-133-132 0-302c0-4 4-8 9-8l292 0c5 0 9 4 9 8l0 13 0 0 0 45c0 5-4 9-9 9z m50 128l-40 0 0 40c0 5-4 8-9 8l-35 0c-5 0-9-3-9-8l0-40-40 0c-5 0-9-4-9-9l0-36c0-4 4-8 9-8l40 0 0-40c0-5 4-9 9-9l35 0c5 0 9 4 9 9l0 40 40 0c5 0 9 4 9 8l0 36c0 5-4 9-9 9z"/>
<glyph glyph-name="page-copy" unicode="&#57378;" d="M385 474l0 0 0 20c0 5-4 9-8 9l-169 0-133-133 0-301c0-5 4-9 9-9l293 0c4 0 8 4 8 9l0 13 0 0z m-259-363l0 242 91 0c5 0 9 4 9 8l0 91 108 0 0-341z m303 274l-18 0 0-343c0-4-3-8-8-8l-253 0 0-17c0-5 4-8 8-8l271 0c4 0 8 3 8 8l0 360c0 4-4 8-8 8z"/>
<glyph glyph-name="page-csv" unicode="&#57379;" d="M207 183c4 0 8-3 9-6l12 5c-2 7-9 14-21 14-15 0-26-10-26-24 0-15 11-25 26-25 12 0 19 8 21 14l-12 6c-1-4-5-7-9-7-7 0-12 5-12 12 0 6 5 11 12 11z m42-1c0 1 1 2 3 2 5 0 10-2 14-5l8 10c-5 5-12 7-20 7-13 0-20-8-20-16 0-18 27-14 27-18 0-2-3-3-6-3-6 0-11 3-15 6l-7-10c5-5 12-8 22-8 12 0 20 6 20 17 0 17-26 13-26 18z m56-19l-11 32-16 0 18-47 18 0 17 47-16 0z m106 285l0 0 0 21c0 4-4 8-9 8l-168 0-133-132 0-302c0-4 4-8 9-8l292 0c5 0 9 4 9 8l0 13 0 0z m-259-362l0 241 91 0c5 0 9 4 9 9l0 90 108 0 0-340z"/>
<glyph glyph-name="page-delete" unicode="&#57380;" d="M377 110l-33 0c-5 0-9-4-9-9l0 0 0-15-208 0 0 241 90 0c5 0 9 4 9 9l0 90 109 0 0-105 0 0c0-5 4-9 9-9l33 0c5 0 9 4 9 9l0 0c0 0 0 0 0 0l0 127 0 0 0 21c0 4-4 8-9 8l-168 0-133-132 0-302c0-4 4-8 9-8l292 0c5 0 9 4 9 8l0 13 0 0 0 45c0 5-4 9-9 9z m29 101l28 28c3 4 3 9 0 13l-25 25c-4 3-9 3-13 0l-28-28-28 28c-4 3-9 3-13 0l-25-25c-3-4-3-9 0-13l28-28-28-28c-3-3-3-9 0-13l25-25c4-3 9-3 13 0l28 29 28-29c4-3 9-3 13 0l25 25c3 4 3 10 0 13z"/>
<glyph glyph-name="page-doc" unicode="&#57381;" d="M411 448l0 0 0 21c0 4-4 8-9 8l-168 0-133-132 0-302c0-4 4-8 9-8l292 0c5 0 9 4 9 8l0 13 0 0z m-259-362l0 241 91 0c5 0 9 4 9 9l0 90 108 0 0-340z m46 109l-21 0 0-47 21 0c15 0 26 9 26 24 0 15-11 23-26 23z m0-35l-7 0 0 23 7 0c8 0 11-5 11-11 0-6-4-12-11-12z m58 36c-15 0-26-10-26-24 0-15 11-25 26-25 14 0 26 10 26 25 0 14-12 24-26 24z m0-36c-7 0-12 5-12 12 0 6 5 11 12 11 7 0 11-5 11-11 0-7-4-12-11-12z m58 23c4 0 8-3 9-6l12 5c-3 7-9 14-21 14-15 0-26-10-26-24 0-15 11-25 26-25 12 0 18 8 21 14l-12 6c-1-4-5-7-9-7-7 0-12 5-12 12 0 6 5 11 12 11z"/>
<glyph glyph-name="page-edit" unicode="&#57382;" d="M343 110l-33 0c-5 0-9-4-9-9l0 0 0-15-208 0 0 241 91 0c5 0 9 4 9 9l0 90 108 0 0-63 0 0c0-4 4-8 9-8l33 0c5 0 9 4 9 8l0 0 0 1c0 0 0 0 0 0 0 0 0 0 0 0l0 84 0 0 0 21c0 4-4 8-9 8l-168 0-133-132 0-302c0-4 4-8 9-8l292 0c5 0 9 4 9 8l0 13 0 0 0 45c0 5-4 9-9 9z m124 202l-59 60c-4 3-9 3-13 0l-163-163 1-1-1 1-22-84 0 0c-1-3 0-6 2-9 3-2 7-3 10-1l0 0 82 22 0 0 0 0 163 163c4 3 4 9 0 12z m-230-170l13 49 36-36z"/>
<glyph glyph-name="page-export" unicode="&#57383;" d="M483 176l-95 68c-2 1-4 1-6 0-3-1-4-3-4-6l0-32-85 0c-4 0-7-2-7-6l0-58c0-4 3-7 7-7l86 0 0-32c0-2 1-4 3-6 2-1 4 0 6 1l95 68c1 1 2 3 2 5 0 0 0 0 0 0 0 2-1 4-2 5z m-155-66l-33 0c-5 0-9-4-9-9l0 0 0-15-208 0 0 241 91 0c4 0 8 4 8 9l0 90 109 0 0-186 0 0c0-4 4-8 9-8l33 0c5 0 9 4 9 8l0 0 0 1c0 0 0 0 0 0l0 207 0 0 0 21c0 4-4 8-9 8l-168 0-133-132 0-302c0-4 4-8 9-8l292 0c5 0 9 4 9 8l0 13 0 0 0 45c0 5-4 9-9 9z"/>
<glyph glyph-name="page-export-csv" unicode="&#57384;" d="M483 176l-95 68c-2 1-4 1-6 0-3-1-4-3-4-6l0-32-85 0c-4 0-7-2-7-6l0-58c0-4 3-7 7-7l86 0 0-32c0-2 1-4 3-6 2-1 4 0 6 1l95 68c1 1 2 3 2 5 0 0 0 0 0 0 0 2-1 4-2 5z m-155-66l-33 0c-5 0-9-4-9-9l0 0 0-15-208 0 0 241 91 0c4 0 8 4 8 9l0 90 109 0 0-186 0 0c0-4 4-8 9-8l33 0c5 0 9 4 9 8l0 0 0 1c0 0 0 0 0 0 0 0 0 0 0 0l0 207 0 0 0 21c0 4-4 8-9 8l-168 0-133-132 0-302c0-4 4-8 9-8l292 0c5 0 9 4 9 8l0 13 0 0 0 45c0 5-4 9-9 9z m-194 73c4 0 8-3 9-6l13 5c-3 7-10 14-22 14-15 0-26-10-26-24 0-15 11-25 26-25 12 0 19 8 22 14l-13 6c-1-4-5-7-9-7-7 0-11 5-11 12 0 6 4 11 11 11z m49-24c-7 0-12 3-16 6l-7-10c5-5 12-8 22-8 13 0 20 6 20 17 0 17-26 13-26 18 0 1 1 2 4 2 4 0 9-2 13-5l8 10c-5 5-12 7-20 7-13 0-20-8-20-16 0-18 27-14 27-18 0-2-3-3-5-3z m39 36l-17 0 18-47 18 0 17 47-16 0-10-32z"/>
<glyph glyph-name="page-export-doc" unicode="&#57385;" d="M483 176l-95 68c-2 1-4 1-6 0-3-1-4-3-4-6l0-32-85 0c-4 0-7-2-7-6l0-58c0-4 3-7 7-7l86 0 0-32c0-2 1-4 3-6 2-1 4 0 6 1l95 68c1 1 2 3 2 5 0 0 0 0 0 0 0 2-1 4-2 5z m-155-66l-33 0c-5 0-9-4-9-9l0 0 0-15-208 0 0 241 91 0c4 0 8 4 8 9l0 90 109 0 0-186 0 0c0-4 4-8 9-8l33 0c5 0 9 4 9 8l0 0 0 1c0 0 0 0 0 0 0 0 0 0 0 0l0 207 0 0 0 21c0 4-4 8-9 8l-168 0-133-132 0-302c0-4 4-8 9-8l292 0c5 0 9 4 9 8l0 13 0 0 0 45c0 5-4 9-9 9z m-224 85l0-47 21 0c15 0 26 9 26 24 0 15-11 23-26 23z m33-23c0-6-4-12-12-12l-6 0 0 23 6 0c8 0 12-5 12-11z m20 0c0-15 12-25 26-25 15 0 26 10 26 25 0 14-11 24-26 24-14 0-26-10-26-24z m38 0c0-7-5-12-12-12-7 0-11 5-11 12 0 6 4 11 11 11 7 0 12-5 12-11z m46 11c4 0 8-3 9-6l13 5c-3 7-9 14-22 14-15 0-26-10-26-24 0-15 11-25 26-25 13 0 19 8 22 14l-13 6c-1-4-5-7-9-7-7 0-11 5-11 12 0 6 4 11 11 11z"/>
<glyph glyph-name="page-export-pdf" unicode="&#57386;" d="M483 176l-95 68c-2 1-4 1-6 0-3-1-4-3-4-6l0-32-85 0c-4 0-7-2-7-6l0-58c0-4 3-7 7-7l86 0 0-32c0-2 1-4 3-6 2-1 4 0 6 1l95 68c1 1 2 3 2 5 0 0 0 0 0 0 0 2-1 4-2 5z m-155-66l-33 0c-5 0-9-4-9-9l0 0 0-15-208 0 0 241 91 0c4 0 8 4 8 9l0 90 109 0 0-186 0 0c0-4 4-8 9-8l33 0c5 0 9 4 9 8l0 0 0 1c0 0 0 0 0 0 0 0 0 0 0 0l0 207 0 0 0 21c0 4-4 8-9 8l-168 0-133-132 0-302c0-4 4-8 9-8l292 0c5 0 9 4 9 8l0 13 0 0 0 45c0 5-4 9-9 9z m-218 85l0-47 15 0 0 15 10 0c11 0 17 7 17 16 0 9-6 16-17 16z m28-16c0-2-2-4-4-4l-9 0 0 8 9 0c2 0 4-1 4-4z m22 16l0-47 21 0c15 0 26 9 26 24 0 15-11 23-26 23z m32-23c0-6-4-12-11-12l-7 0 0 23 7 0c8 0 11-5 11-11z m59 11l0 12-35 0 0-47 14 0 0 18 21 0 0 12-21 0 0 5z"/>
<glyph glyph-name="page-filled" unicode="&#57387;" d="M110 327l133 0c5 0 9 4 9 9l0 133c0 4-4 8-9 8l-9 0-133-132 0-9c0-5 4-9 9-9z m292 150l-91 0c-4 0-7-2-8-6l0 0 0-187 0 0c0 0 0 0 0 0 0-5-4-9-9-9 0 0 0 0 0 0l0 0-184 0c-5 0-8-4-9-8l0 0 0-224c0-4 4-8 9-8l292 0c5 0 9 4 9 8l0 426c0 4-4 8-9 8z"/>
<glyph glyph-name="page-multiple" unicode="&#57388;" d="M443 393l-18 0 0-343c0-4-4-7-8-7l-253 0 0-18c0-5 3-8 8-8l271 0c4 0 7 3 7 8l0 360c0 4-3 8-7 8z m-44-317l0 360c0 4-3 8-7 8l-18 0 0-343c0-4-4-7-8-7l-253 0 0-18c0-4 3-8 7-8l272 0c4 0 7 4 7 8z m-51 51l0 360c0 5-3 8-8 8l-271 0c-4 0-7-3-7-8l0-360c0-4 3-8 7-8l271 0c5 0 8 4 8 8z"/>
<glyph glyph-name="page-pdf" unicode="&#57389;" d="M211 195l-26 0 0-47 15 0 0 15 11 0c11 0 17 7 17 16 0 9-6 16-17 16z m-2-20l-9 0 0 8 9 0c2 0 4-1 4-4 0-2-2-4-4-4z m47 20l-21 0 0-47 21 0c15 0 26 9 26 24 0 15-11 23-26 23z m0-35l-7 0 0 23 7 0c8 0 12-5 12-11 0-6-5-12-12-12z m35-12l14 0 0 18 21 0 0 12-21 0 0 5 22 0 0 12-36 0z m120 300l0 0 0 21c0 4-4 8-9 8l-168 0-133-132 0-302c0-4 4-8 9-8l292 0c5 0 9 4 9 8l0 13 0 0z m-259-362l0 241 91 0c5 0 9 4 9 9l0 90 108 0 0-340z"/>
<glyph glyph-name="page-remove" unicode="&#57390;" d="M386 150l0 0 0 0c0 5-4 9-9 9l-33 0c-5 0-9-4-9-9l0 0 0-64-208 0 0 241 91 0c5 0 9 4 9 9l0 90 108 0 0-154 0 0c0-5 4-9 9-9l33 0c5 0 9 4 9 9l0 0 0 176 0 0 0 21c0 4-4 8-9 8l-168 0-133-132 0-302c0-4 4-8 9-8l292 0c5 0 9 4 9 8l0 13 0 0 0 94z m41 88l-133 0c-5 0-9-4-9-9l0-36c0-4 4-8 9-8l133 0c5 0 9 4 9 8l0 36c0 5-4 9-9 9z"/>
<glyph glyph-name="page-search" unicode="&#57391;" d="M457 448l0 0 0 21c0 4-4 8-9 8l-168 0-133-132 0-27 0 0c1-5 4-8 9-8l33 0c5 0 9 3 9 8l0 0 0 9 91 0c5 0 9 4 9 9l0 90 108 0 0-340-208 0 0 15 0 0c0 5-4 9-9 9l-33 0c-5 0-9-4-9-9l0-58c0-4 4-8 9-8l292 0c5 0 9 4 9 8l0 13 0 0z m-203-238c0 45-37 82-82 82-45 0-82-37-82-82 0-16 4-30 11-42l-40-40 1 0c-5-4-7-10-7-17 0-12 10-22 22-22 7 0 13 2 17 7l0 0 41 41c11-6 24-9 37-9 45 0 82 36 82 82z m-130 0c0 26 22 47 48 47 26 0 48-21 48-47 0-27-22-48-48-48-26 0-48 21-48 48z"/>
<glyph glyph-name="paint-bucket" unicode="&#57392;" d="M425 267c0 0 0 0 0 0l-164 164 0 0c-5 5-13 5-18 0l-27-27-58 58c-4 5-11 8-18 8-14 0-25-12-25-26 0-7 3-14 8-18l57-58-140-139c-5-5-5-14 0-19l165-164c5-5 13-5 18 0l202 203c5 5 5 13 0 18z m-100-47l-221 0 148 148 111-110z m141-86l-30 53c0 1-1 1-1 1l0 0 0 0c-1 3-4 4-7 4-2 0-5-1-6-3l0 0-1-1c0 0 0-1-1-1l-30-52c-5-8-9-18-9-28 0-26 21-48 47-48 26 0 47 22 47 48 0 10-3 20-9 27z"/>
<glyph glyph-name="paperclip" unicode="&#57393;" d="M155 59c-14 0-32 5-50 23-24 24-27 47-25 62 2 17 11 34 27 50l150 151c43 42 71 26 83 13 16-15 26-42-14-82l-138-139-27 27 138 139c22 21 17 26 14 28-1 2-7 8-29-13l-150-151c-7-7-15-17-16-28-1-9 4-19 14-30 13-13 23-12 26-11 9 1 19 7 30 18 13 12 167 166 178 178 15 15 24 29 28 42 5 20-1 38-20 57-19 19-51 40-98-8l-165-165c-8-7-20-7-27 0-8 8-8 20 0 27l165 165c51 51 106 54 152 8 36-36 36-71 30-94-6-20-18-39-38-59-11-12-166-166-178-178-17-17-34-26-51-29-3 0-6-1-9-1z"/>
<glyph glyph-name="pause" unicode="&#57394;" d="M208 410c-1 0-1 0-2 0l0 0-53 0c-6 0-11-5-11-11 0 0 0 0 0 0l0 0 0-286 0 0c0 0 0 0 0 0 0-6 5-11 11-11l55 0c6 0 11 5 11 11 0 0 0 0 0 0l0 0 0 286c0 0 0 0 0 0 0 6-5 11-11 11z m162-297l0 286c0 0 0 0 0 0 0 6-5 11-11 11-1 0-1 0-2 0l0 0-53 0c-6 0-11-5-11-11 0 0 0 0 0 0l0 0 0-286 0 0c0 0 0 0 0 0 0-6 5-11 11-11l55 0c6 0 11 5 11 11 0 0 0 0 0 0z"/>
<glyph glyph-name="paw" unicode="&#57395;" d="M178 304c0 28-23 51-52 51-28 0-51-23-51-51 0-29 23-52 51-52 29 0 52 23 52 52z m208 41c-29 0-52-23-52-52 0-28 23-51 52-51 28 0 51 23 51 51 0 29-23 52-51 52z m-48-109c-3 4-8 9-14 15-16 20-40 33-68 33-25 0-47-10-62-27-9-8-17-15-22-21l-3-4c-16-20-36-43-35-84 0-37 30-68 68-68 21 0 40 10 53 27 13-17 32-27 54-27 37 0 68 31 68 68 0 41-20 64-35 84z m-21 138c0-31-26-57-57-57-32 0-58 26-58 57 0 32 26 58 58 58 31 0 57-26 57-58z"/>
<glyph glyph-name="paypal" unicode="&#57396;" d="M171 152l14 60c2 8 11 15 20 15l11 0c50 0 88 11 116 31 28 20 42 47 42 80 0 15-3 27-8 37-5 10-13 18-22 24-10 6-22 10-36 13-13 2-29 4-48 4l-84 0c-9 0-18-7-20-16l-57-248c-2-9 4-16 12-16l41 0c9 0 17 7 19 16z m34 144l12 53c2 8 10 15 19 15l13 0c16 0 28-3 36-8 8-5 12-13 11-24 1-16-6-29-18-38-12-9-29-14-51-14l-10 0c-9 0-14 7-12 16z m201 39c-5 10-13 18-23 24 0 0-1 1-2 1 0 0 1-1 1-1 5-10 8-22 8-37 0-33-14-60-42-80-27-21-66-31-115-31l-12 0c-9 0-18-7-19-15l-14-61c-2-8-11-15-20-15l-27 0-2-8c-2-9 3-16 12-16l41 0c9 0 17 7 19 16l14 60c2 9 11 16 20 16l11 0c50 0 88 10 116 30 28 20 41 47 41 81 0 14-2 26-7 36z"/>
<glyph glyph-name="pencil" unicode="&#57397;" d="M455 362l-93 93c-5 5-14 5-20 0l-253-254 1 0-1 0-35-130 0 0c-2-4 0-10 3-14 5-4 11-5 16-2l0 0 128 34 0 0 0 0 254 254c5 5 5 14 0 19z m-359-265l21 76 56-56z"/>
<glyph glyph-name="photo" unicode="&#57398;" d="M477 420c0 12-10 23-23 23-1 0-2 0-3-1l0 1-393 0 0 0c-13 0-23-11-23-23l0-330 0 0c1-12 11-21 23-21l0 0 393 0 0 1c1-1 2-1 3-1 12 0 22 9 23 21l0 0 0 330z m-51-300l-55 0c0 1-1 2-1 2l0 0-116 202 0 0c-3 5-8 9-15 9-6 0-11-4-14-10l-77-134-19 33 0 0c-2 3-4 5-8 5-3 0-6-2-7-5l-28-48 0 218 340 0z m-26 194c0-28-23-51-51-51-29 0-52 23-52 51 0 29 23 52 52 52 28 0 51-23 51-52z"/>
<glyph glyph-name="play" unicode="&#57399;" d="M394 256c0 4-2 8-6 10l-252 146c-2 1-4 2-7 2-6 0-11-5-11-12 0 0 0-1 0-1l0 0 0-293 0 0c1-5 5-10 11-10 2 0 4 1 6 2l0 0 253 146 0 0c4 2 6 6 6 10z"/>
<glyph glyph-name="play-circle" unicode="&#57400;" d="M256 448c-106 0-192-86-192-192 0-106 86-192 192-192 106 0 192 86 192 192 0 106-86 192-192 192z m0-333c-78 0-141 63-141 141 0 78 63 141 141 141 78 0 141-63 141-141 0-78-63-141-141-141z m84 146l0 0-120 69 0 0c-1 0-2 0-3 0-3 0-5-2-5-5 0 0 0 0 0-1l0 0 0-138 0 0c0-2 3-4 5-4 1 0 2 0 3 0l0 0 120 69 0 0c1 1 2 3 2 5 0 2-1 4-2 5z"/>
<glyph glyph-name="play-video" unicode="&#57401;" d="M438 99c14 0 25 11 25 26l0 262c0 15-11 26-25 26l-364 0c-14 0-25-11-25-26l0-262c0-15 11-26 25-26z m-26 51l-312 0 0 212 312 0z m-80 105l-61-36-62-35 0 141 62-35z"/>
<glyph glyph-name="plus" unicode="&#57402;" d="M432 309l-123 0 0 123c0 5-5 10-10 10l-86 0c-5 0-10-5-10-10l0-123-123 0c-5 0-10-5-10-10l0-86c0-3 1-5 3-7 2-2 4-3 7-3l123 0 0-123c0-3 1-5 3-7 2-2 4-3 7-3l86 0c3 0 5 1 7 3 2 2 3 4 3 7l0 123 123 0c3 0 5 1 7 3 2 2 3 4 3 7l0 86c0 5-5 10-10 10z"/>
<glyph glyph-name="pound" unicode="&#57403;" d="M367 139c0 1-1 2-1 3l0 0-15 37c0 0 0 0 0 0l-1 0 0 0c0 2-2 4-5 4-2 0-3-1-4-2l0 0c-6-7-18-15-36-15-20 0-29 14-53 14-6 0-14-1-20-4 14 10 26 27 26 46 0 3 0 6 0 8l46 0 0 0c3 0 6 3 6 6l0 22 0 0c0 3-3 5-6 5l0 0-59 0c-10 15-20 28-20 49 0 23 19 38 43 38 19 0 35-12 42-29 1-2 3-3 5-3 1 0 2 0 3 0 0 0 0 0 0 0l36 22 0 0c2 1 3 3 3 5 0 1 0 2-1 3l0 0c-17 34-49 50-95 50-49 0-100-33-100-85 0-20 8-36 19-50l-28 0 0 0c0 0-1 0-1 0-3 0-6-2-6-6l0-22 1 0c0-3 2-5 5-5 0 0 1 0 1 0l0 0 49 0c3-7 5-14 5-22 0-21-19-39-44-51 0 0 0 0 0 0 0 0-1-1-1-1l0 0c-2-1-3-3-3-5 0-1 0-1 1-2l0 0 0 0c0 0 0 0 0 0l14-30c0 0 0 0 0 0l0 0 0 0c1-2 3-3 5-3 1 0 2 0 3 0l0 0c16 9 33 16 48 16 25 0 38-18 74-18 30 0 50 9 61 20l0 0c2 2 3 3 3 5z"/>
<glyph glyph-name="power" unicode="&#57404;" d="M392 396l0 0c-2 2-5 3-8 3-3 0-5-1-7-3l0 0-1 0c0 0 0 0 0 0l-21-19c0 0 0 0 0-1l0 0 0 0c-2-2-3-4-3-7 0-4 2-8 5-10 25-25 40-60 40-98 0-78-63-141-141-141-78 0-141 63-141 141 0 38 16 73 41 99l0 0c2 2 4 5 4 9 0 3-2 5-4 7l0 0 0 0c0 1 0 1 0 1l-21 19c0 0 0 0 0 0l-1 0 0 0c-2 2-4 3-7 3-4 0-8-2-10-6-33-34-53-81-53-132 0-106 86-192 192-192 106 0 192 86 192 192 0 52-21 100-56 135z m-150-205l28 0c0 0 0 0 0 0 6 0 11 5 11 11l0 230 0 0c0 0 0 0 0 0 0 6-5 11-11 11 0 0 0 0 0 0l-28 0c-6 0-11-5-11-11 0 0 0 0 0 0l0 0 0-230c0-6 5-11 11-11z"/>
<glyph glyph-name="previous" unicode="&#57405;" d="M446 377c-3 0-5-1-7-2l-145-84 0 78c0 4-4 8-9 8-2 0-5-1-6-2l-171-99 0 120 0 0c0 0 0 0 0 1 0 7-6 12-13 13l-25 0 0-1c-7 0-13-5-13-13 0 0 1 0 1 0l0-280c0 0 0 0 0 0 0 0 0 0 0 0l0-2 0 0c0-6 6-11 13-11 0 0 0 0 0 0l23 0c1 0 1-1 1-1 8 0 13 6 13 13 0 1 0 2 0 2l0 119 171-99c2-1 4-2 6-2 5 0 9 3 9 8l0 0 0 78 146-84c1-1 3-2 6-2 5 0 8 3 9 8l0 0 0 226c0 4-4 8-9 8z"/>
<glyph glyph-name="price-tag" unicode="&#57406;" d="M417 173c0 1 0 1 0 1l0 0-138 239 0 0c-1 1-3 3-5 4l0 0-56 32 0 0c-3 2-6 2-9 1l-1 0-1-1c0 0 0 0 0 0 0 0 0 0 0 0l-108-63c-4-2-5-5-5-9l-1 0 0-65 1 0c-1-2 0-4 1-6 0 0 0 0 0 0l137-238c1-1 1-1 1-1 3-5 9-7 14-4l0 0 166 96 0 0c5 3 7 9 4 14z m-231 189c-9-6-21-3-27 7-5 9-2 21 7 27 10 5 22 2 27-7 6-10 3-22-7-27z"/>
<glyph glyph-name="pricetag-multiple" unicode="&#57407;" d="M452 164c0 0 0 0 0 1l0 0-138 238 0 0c-1 2-3 3-5 4l0 0-41 24 46-79 103-179 0 0c0 0 0 0 0 0 3-5 2-12-3-15l0 0-153-88 6-12c0 0 1 0 1-1 3-5 9-6 14-4l0 0 166 96 0 0c5 3 7 10 4 15z m-74 4c5 3 7 10 4 15 0 0 0 0 0 0l0 0-138 239 0 0c-1 2-3 3-5 4l0 0-56 33 0-1c-3 2-6 2-9 1l0 0-2 0c0-1 0-1 0-1 0 0 0 0 0 0l-108-62c-3-2-5-6-5-9l0 0 0-65 0 0c-1-2 0-5 1-7 0 0 0 0 0 0l138-238c0 0 0 0 0-1 3-5 9-6 14-4l0 0 166 96z m-227 203c-9-5-21-2-27 7-5 10-2 22 7 27 10 6 22 3 28-7 5-9 2-21-8-27z"/>
<glyph glyph-name="print" unicode="&#57408;" d="M463 332c0 5-4 9-9 9l-67 0 0 110c0 5-5 10-10 10l-242 0c-5 0-10-5-10-10l0-110-67 0c0 0 0 0 0 0-5 0-9-4-9-9l0 0 0-188c0-5 4-10 9-10l67 0 0 79 262 0 0-79 67 0c5 0 9 5 9 10l0 188z m-102-33l-210 0 0 127c0 5 4 9 9 9l192 0c5 0 9-4 9-9l0-127z m-209-238c0-5 4-10 9-10l190 0c5 0 9 5 9 10l0 126-208 0z"/>
<glyph glyph-name="prohibited" unicode="&#57409;" d="M256 448c-106 0-192-86-192-192 0-106 86-192 192-192 106 0 192 86 192 192 0 106-86 192-192 192z m0-333c-78 0-141 63-141 141 0 34 12 66 33 90l198-198c-24-21-56-33-90-33z m108 51l-198 198c24 21 56 33 90 33 78 0 141-63 141-141 0-34-12-66-33-90z"/>
<glyph glyph-name="projection-screen" unicode="&#57410;" d="M451 427c0 6-4 10-9 10l-372 0c-5 0-9-4-9-10l0-32c0-5 4-9 9-9 0 0 0 0 0 0l372 0c5 0 9 4 9 9z m-31-67l-328 0c-5 0-9-4-9-9 0 0 0 0 0 0l0 0 0-190c0-12 9-21 21-21l139 0 0-27c-5-4-8-10-8-17 0-11 9-21 21-21 12 0 21 10 21 21 0 7-3 13-8 17l0 27 139 0c12 0 21 9 21 21l0 190 0 0c0 5-4 9-9 9z"/>
<glyph glyph-name="puzzle" unicode="&#57411;" d="M402 262l0 66 0 0c0 11-8 20-19 20l0 1-62 0c0 0-1 0-1 0 0 0-1 0-1 0l-1 0 0 0c-14 1-26 13-26 27 0 7 3 12 6 17l0 0c3 6 5 13 5 21 0 23-19 42-42 42-23 0-42-19-42-42 0-8 2-15 6-21l-1 0c4-5 6-10 6-17 0-14-11-26-26-27l0 0-74 0 0 0c-11 0-20-10-20-21 0 0 0 0 0-1l0-68 0 0c0-7 5-12 11-12 2 0 3 0 4 1 6 2 13 4 20 4 27 0 50-23 50-50 0-28-23-50-50-50-7 0-14 1-20 4-1 0-2 1-4 1-6 0-11-6-11-12 0-1 0-1 0-2l0 0 0-66c0 0 0 0 0-1 0-11 9-20 20-20 1 0 1 0 2 0l67 0c6 0 12 5 12 12 0 1-1 2-1 3 0 0 0 0 0 0 0 1 0 1 0 1l0 0c-2 5-2 9-2 14 0 28 22 50 50 50 27 0 50-22 50-50 0-5-1-9-2-14l0 0c-1-1-1-3-1-4 0-7 5-12 11-12 0 0 0 0 1 0l65 0c11 0 20 9 20 20l0 0 0 67 0 0c-1 6-5 10-11 10l0 1c-4-1-9-2-13-2-28 0-50 22-50 50 0 28 22 50 50 50 4 0 9-1 13-2l0 1c0 0 0 0 0 0 5 0 9 3 11 8l0 0 0 3c0 0 0 0 0 0 0 0 0 0 0 0z"/>
<glyph glyph-name="quote" unicode="&#57412;" d="M90 288c-4 0-8 0-10-1 4 18 22 39 38 48 0 0 0 0 0 0 0 0 0 0 1 0l0 0c1 1 3 3 3 5 0 2-1 4-3 5l0 0-21 13 0 0c-1 1-2 2-4 2-1 0-2-1-2-1l0 0c-33-23-54-57-54-96 0-34 22-53 46-53 22 0 41 19 41 41 0 22-15 37-35 37z m105 0c-4 0-8 0-10-1 4 18 22 39 38 48 0 0 0 0 0 0 1 0 1 0 1 0l0 0c2 1 3 3 3 5 0 2-1 4-3 5l0 0-21 13 0 0c-1 1-2 2-4 2-1 0-1-1-2-1l0 0c-32-23-54-57-54-96 0-34 22-53 46-53 23 0 41 19 41 41 0 22-15 37-35 37z m128 14c-23 0-41-19-41-41 0-22 15-37 35-37 4 0 8 0 10 1-4-18-22-39-38-48 0 0 0 0 0 0-1 0-1 0-1 0l0 0c-2-1-3-3-3-5 0-2 1-4 3-5l0 0 21-13 0 0c1-1 2-2 4-2 1 0 1 1 2 1l0 0c32 23 54 57 54 96 0 34-22 53-46 53z m105 0c-22 0-41-19-41-41 0-22 15-37 35-37 4 0 8 0 10 1-4-18-22-39-38-48 0 0 0 0 0 0 0 0 0 0-1 0l0 0c-1-1-3-3-3-5 0-2 1-4 3-5l0 0 21-13 0 0c1-1 2-2 4-2 1 0 2 1 2 1l0 0c33 23 54 57 54 96 0 34-22 53-46 53z"/>
<glyph glyph-name="record" unicode="&#57413;" d="M256 446c-105 0-190-85-190-190 0-105 85-190 190-190 105 0 190 85 190 190 0 105-85 190-190 190z m0-252c-34 0-62 28-62 62 0 34 28 62 62 62 34 0 62-28 62-62 0-34-28-62-62-62z"/>
<glyph glyph-name="refresh" unicode="&#57414;" d="M433 401c0 3-2 6-4 7-3 2-6 1-8 0l-31-22-2-2c-33 33-78 53-128 53-100 0-181-81-181-181 0-100 81-181 181-181 60 0 117 29 150 80 2 2 2 4 2 6-1 3-2 5-4 6l-45 32c-5 3-11 1-14-3-20-30-53-47-89-47-59 0-107 48-107 107 0 59 48 107 107 107 25 0 48-8 66-23l-5-3-30-22c-3-2-4-5-3-8 0-3 2-5 5-6l130-44c2-1 5-1 7 1 2 1 3 4 3 6z"/>
<glyph glyph-name="results" unicode="&#57415;" d="M472 400c0 5-4 9-9 9 0 0 0 0 0 0l0 0-235 0 0 0c-5 0-9-4-9-9l0 0 0 0c0 0 0 0 0 0 0 0 0 0 0 0l0-33c0 0 0 0 0 0 0-5 4-9 9-9l235 0c0 0 0 0 0 0 5 0 9 4 9 9 0 0 0 0 0 0z m0-77c0 5-4 9-9 9 0 0 0 0 0 0l0 0-235 0 0 0c-5 0-9-4-9-9l0 0 0 0c0 0 0 0 0 0l0-32c0 0 0 0 0 0 0-5 4-10 9-10l235 0 0 0c0 0 0 0 0 0 5 0 9 5 9 10z m-304 77c0 5-4 9-9 9-1 0-1 0-1 0l-108 0c0 0 0 0-1 0-5 0-9-4-9-9l0-109c0-5 4-10 9-10l110 0c5 0 9 5 9 10z m304-179c0 5-4 9-9 9 0 0 0 0 0 0l0 1-235 0 0-1c-5 0-9-4-9-9l0 0 0 0c0 0 0 0 0 0 0 0 0 0 0 0l0-32c0 0 0 0 0 0 0-5 4-9 9-9l235 0 0 0c0 0 0 0 0 0 5 0 9 4 9 9z m0-76c0 5-4 9-9 9 0 0 0 0 0 0l0 0-235 0 0 0c-5 0-9-4-9-9l0 0 0 0c0 0 0 0 0 0 0 0 0 0 0 0l0-32c0 0 0-1 0-1 0-5 4-9 9-9l235 0 0 0c0 0 0 0 0 0 5 0 9 4 9 9 0 0 0 0 0 0z m-304 76c0 5-4 10-9 10-1 0-1-1-1-1l-108 0c0 0 0 1-1 1-5 0-9-5-9-10l0-109c0-5 4-9 9-9 0 0 0 0 0 0l110 0c5 0 9 4 9 9z"/>
<glyph glyph-name="results-demographics" unicode="&#57416;" d="M143 274c-7 14-11 31-11 47 0 9 2 18 4 28 1 4 3 9 5 13-7 3-14 5-21 5-28 0-51-26-51-59 0-22 11-42 27-52l-68-32c-5-2-7-7-7-12l0-54c0-8 5-13 11-13l40 0 0 56c0 17 10 32 24 39l53 24c-2 3-4 7-6 10z m165 60l174 0 0 0c0 0 0 0 0 0 5 0 10 4 10 9 0 0 0 0 0 0l0 33c0 5-5 9-10 9 0 0 0 0 0 0l0 0-195 0c9-11 15-24 18-38 2-5 2-9 3-13z m184-162c0 5-5 9-10 9 0 0 0 0 0 0l0 0-113 0 0-47c0-1 0-3-1-4l114 0 0 0c0 0 0 0 0 0 5 0 10 4 10 9z m-10 111c0 0 0 0 0 0l0 0-180 0c-1-2-2-4-3-7-2-4-4-8-6-11l53-25c4-2 7-5 10-8l126 0 0 0c0 0 0 0 0 0 5 0 10 4 10 9 0 0 0 0 0 0l0 33c0 5-5 9-10 9z m-148-66l-59 28-25 12c11 7 20 17 26 30 5 10 7 22 7 34 0 7-1 13-2 20-8 30-32 53-60 53-29 0-52-22-60-52-2-6-3-14-3-21 0-13 3-25 8-36 6-12 15-22 26-29l-24-11-61-28c-6-3-9-9-9-16l0-67c0-9 6-16 14-16l217 0c8 0 14 7 14 16l0 67c0 7-3 13-9 16z"/>
<glyph glyph-name="rewind" unicode="&#57417;" d="M433 377c-2 0-4-1-6-2l-146-84 0 78c0 4-3 8-8 8-3 0-5-1-7-2l-192-111 0-1c-2-1-4-4-4-7 0-4 2-7 5-8l0 0 192-111c1-1 3-2 6-2 4 0 8 3 8 8l0 0 0 78 146-84c2-1 4-2 6-2 5 0 9 3 9 8l0 0 0 226c0 4-4 8-9 8z"/>
<glyph glyph-name="rewind-ten" unicode="&#57418;" d="M404 261c2 2 3 4 3 6l-3 138c0 3-2 5-4 7-3 1-6 1-8-1l-30-23-3-1c-33 32-78 51-128 50-100-2-180-85-178-184 2-100 85-180 185-178 3 0 7 0 10 0 0 0 3 0 6 2 0 0 0 0 0 0 0 0 1 0 2 1 0 0 0 0 0 0 1 0 1 1 1 1 1 0 1 0 1 1 0 0 0 0 0 0 0 0 0 0 0 0 2 2 4 6 4 9 0 0 0 0-1 0l0 47 0 0c0 0 0 0 0 0-1 8-7 14-14 13l0 0c-3 0-7 0-11 0-59-1-108 46-109 105-1 59 46 108 105 109 25 1 48-7 67-21l-5-4-30-23c-2-1-4-4-3-7 0-3 2-5 5-6l131-42c3-1 5 0 7 1z m-60-55l-31-32 12-12 16 17 2-72 21 0-2 99z m73 3c-28-1-40-27-39-52 0-25 13-51 41-50 29 0 41 26 40 52 0 25-13 50-42 50z m2-84c-14 0-20 14-20 32 0 19 5 33 19 33 14 0 19-14 20-32 0-18-5-32-19-33z"/>
<glyph glyph-name="rss" unicode="&#57419;" d="M134 179c-24 0-45-20-45-45 0-24 21-44 45-44 25 0 45 20 45 44 0 25-20 45-45 45z m-13 124c-1 0-1 0-1 0l0 0-18 0 0 0c-9-1-15-8-16-17l0 0 0-32 1 0c1-8 7-14 15-15l0 0 18 0 0 0c0 0 0 0 1 0 65 0 118-53 119-118l0 0 0-18 0 0c1-9 8-15 17-16l0 0 32 0 0 1c8 1 14 7 15 15l0 0 0 18 0 0c-1 100-83 182-183 182z m305-182c-1 167-138 304-305 304-1 0-1 0-1 0l0 0-18 0 0-1c-9-1-15-8-16-17l0 0 0-31 1 0c1-8 7-15 15-16l0 0 18 0 0 0c0 0 0 0 1 0 132 0 240-107 240-239l0 0 0-18 0 0c1-9 9-15 17-16l0 0 32 0 0 1c8 1 14 7 15 15l1 0 0 18 0 0z"/>
<glyph glyph-name="safety-cone" unicode="&#57420;" d="M497 92l0 24 0 0 0 0c0 7-6 12-13 12l0 0-38 0-169 293 0 0c-4 8-12 13-21 13-9 0-17-5-21-13l-169-293-38 0c-7 0-13-5-13-12l0-25 0 0c0 0 0-1 0-1 0-7 6-12 13-12l456 0 0 0c0 0 0 0 1 0 6 0 12 5 12 12 0 1 0 2 0 2z m-254 291l26 0 29-51-84 0z m-59-102l144 0 29-51-202 0z m-88-153l30 51 261 0 29-51z"/>
<glyph glyph-name="save" unicode="&#57421;" d="M271 425l53 0 0-110-53 0z m170-11l0 0-26 26c-2 3-6 4-9 4 0 0 0 0 0 0l-46 0c0 0 0 0 0 0l-1 0 0 0c-1 0-3 0-4-1-1-2-2-3-2-4l0 0 0-130 0 0c0-7-5-12-12-12l-176 0 0 0c-7 1-12 6-12 12l0 0 0 130 0 0c-1 1-1 2-2 3-2 2-4 3-6 2l0 0-66 0c-7 0-12-5-12-12l0-352c0-7 5-12 12-12l39 0 0 168c0 0 0 0 0 0l0 1 0 0c0 5 4 10 9 11l0 0 1 0c1 0 1 0 2 0l253 0 0 0c6 0 11-5 11-11l0 0 0-169 39 0c7 0 12 5 12 12l0 324c0 0 0 1 0 1 0 3-1 6-4 9z"/>
<glyph glyph-name="share" unicode="&#57422;" d="M375 316c-8 0-15-1-22-4l-156 90c0 2 0 3 0 4 0 34-27 61-60 61-33 0-60-27-60-61 0-33 27-60 60-60 13 0 25 4 35 12l145-84c-1-6-2-12-2-18 0-6 1-12 2-18l-144-84c-10 7-23 12-36 12-33 0-60-27-60-60 0-34 27-61 60-61 33 0 60 27 60 61 0 1 0 2 0 3l157 91c6-3 13-4 21-4 33 0 60 27 60 60 0 33-27 60-60 60z"/>
<glyph glyph-name="sheriff-badge" unicode="&#57423;" d="M420 194c-4 0-8-1-12-2l-35 60 35 60c2-1 4-1 7-1 15 0 27 12 27 27 0 16-12 28-27 28-10 0-18-5-23-12l-78 0-36 62c3 5 5 10 5 15 0 16-13 28-28 28-15 0-28-12-28-28 0-5 2-10 5-14l-37-63-79 0c-5 9-14 14-24 14-15 0-28-12-28-27 0-15 13-28 28-28 4 0 8 2 12 3l35-60-35-60c-2 1-4 1-7 1-15 0-27-12-27-28 0-15 12-27 27-27 10 0 18 5 23 12l78 0 35-61c-2-3-4-8-4-12 0-16 13-28 28-28 15 0 28 12 28 28 0 4-2 8-4 12l36 61 79 0c5-9 14-15 24-15 15 0 28 13 28 28 0 15-13 27-28 27z"/>
<glyph glyph-name="shield" unicode="&#57424;" d="M256 458l0 1-172-100 0 0 0-118 0 0c2-97 77-178 172-188 96 10 170 91 172 188l0 118 0 0z m0-353l0 142-121 0 0 82 121 70 0-152 121 0 0-6 0 0c-2-69-54-127-121-136z"/>
<glyph glyph-name="shopping-bag" unicode="&#57425;" d="M476 314c-1 10-9 18-19 18l-31 0c-33 60-97 102-170 102-73 0-137-42-170-102l-31 0c-10 0-18-8-19-18l-1 0 0-216c0-11 9-20 20-20l402 0c11 0 20 9 20 20l0 216z m-328 18c25 31 64 51 108 51 44 0 83-20 108-51z"/>
<glyph glyph-name="shopping-cart" unicode="&#57426;" d="M199 97c0-16-14-30-30-30-17 0-30 14-30 30 0 17 13 30 30 30 16 0 30-13 30-30z m212 0c0-16-14-30-31-30-16 0-30 14-30 30 0 17 14 30 30 30 17 0 31-13 31-30z m-35 132c7 0 13 4 16 10l0 0 75 130 0 0c1 2 2 5 2 7 0 10-8 18-18 18l-274 0 0 33c0 10-8 18-18 18l-97 0 0 0c0 0-1 0-1 0-9 0-16-7-17-16l-1 0 0-17c0-10 8-18 18-18 0 0 1 0 1 0l0 0 64 0 0-224 0 0c0-10 8-17 17-17 0 0 0 0 0 0l304 0 0 0c8 1 15 7 16 15l0 0 0 2c0 0 0 1 0 1 0 0 0 0 0 0l0 15c0 0 0 0 0 0 0 9-7 17-16 18l0 0-270 0 0 25 199 0z"/>
<glyph glyph-name="shuffle" unicode="&#57427;" d="M99 193l-58 0c-1 1-2 1-3 1-6 0-11-5-12-11l-1 0 0-56 1 0c1-5 5-9 10-10l0 0 87 0 0 0c9 0 17 5 21 12l54 54-55 55z m386 161l-96 68c-2 2-4 2-6 1-3-1-4-4-4-6l0-29-76 0 0 0c-6 0-11-2-15-6l0 0-54-54 54-54 38 37 53 0 0-30c0-3 1-5 4-6 2-1 5-1 7 0l95 69c1 1 2 3 2 5 0 0 0 0 0 0 0 2-1 4-2 5z m-1-186l-95 69c-2 1-5 1-7 0-2-1-3-3-3-6l0-30-53 0-182 182c-4 7-12 12-21 12l0 0-87 0 0 0c-5-1-9-5-11-10l0 0 0-56 0 0c1-6 7-11 13-11 1 0 2 0 3 1l58 0 189-189 0 0c4-4 9-6 14-6l0 0 77 0 0-29c0-2 1-5 3-6 2-1 5-1 7 1l95 68c2 1 3 3 3 5 0 0 0 0 0 0 0 2-1 4-3 5z"/>
<glyph glyph-name="skull" unicode="&#57428;" d="M447 142c-12 11-30 12-42 1l-46 46c13 19 20 42 20 67 0 25-7 48-20 67l46 46c12-11 30-11 41 1 12 12 12 31 1 42-7 7-17 10-26 9 2 9-1 19-8 26-12 12-31 12-43 0-11-12-12-30-1-42l-46-46c-19 13-42 20-67 20-25 0-48-7-67-20l-46 46c11 12 11 30-1 41-12 12-31 12-42 1-7-7-10-17-9-26-9 2-19-1-26-8-12-12-12-31 0-43 12-11 30-12 42-1l46-46c-13-19-20-42-20-67 0-25 7-48 20-67l-46-46c-12 11-30 11-41-1-12-12-12-31-1-42 7-7 17-10 26-9-2-9 1-19 8-26 12-12 31-12 43 0 11 12 12 30 1 42l44 44 0-30c19-15 43-24 69-24 26 0 50 9 69 24l0 30 44-44c-11-12-11-30 1-41 12-12 31-12 42-1 7 7 10 17 9 26 9-2 19 1 26 8 12 12 12 31 0 43z m-225 68c-13 0-23 11-23 23 0 13 10 24 23 24 13 0 24-11 24-24 0-12-11-23-24-23z m68 0c-13 0-24 10-24 23 0 13 11 24 24 24 13 0 23-11 23-24 0-13-10-23-23-23z"/>
<glyph glyph-name="social-500px" unicode="&#57429;" d="M334 291c-5 0-11-1-15-3-5-2-10-5-14-9-5-3-9-7-13-11-4-4-7-8-10-11 3-4 7-8 11-12 4-4 8-7 12-10 5-3 9-6 14-7 5-2 10-3 16-3 10 0 17 3 23 9 5 7 7 14 7 24 0 9-2 17-8 23-6 7-13 10-23 10z m-111-23c-4 4-9 8-13 11-5 4-10 7-15 9-5 2-10 3-15 3-9 0-16-3-22-10-5-7-8-15-8-24 0-9 3-17 9-23 5-6 13-9 23-9 5 0 10 1 15 3 5 2 9 4 14 7 4 3 8 7 12 10 4 4 8 8 11 12-3 3-7 7-11 11z m181 172l-296 0c-20 0-36-16-36-36l0-296c0-20 16-36 36-36l296 0c20 0 36 16 36 36l0 296c0 20-16 36-36 36z m-6-210c-3-9-8-17-14-24-5-6-13-12-21-15-9-4-18-6-29-6-8 0-16 1-23 4-7 2-14 5-20 9-6 5-12 9-17 15-6 5-11 11-16 16-6-5-11-11-16-16-6-6-11-10-17-15-6-4-13-7-20-9-7-3-14-4-23-4-11 0-21 2-29 6-8 3-16 8-22 15-6 6-10 14-14 23-3 9-4 19-4 29 0 10 1 20 4 29 3 8 8 16 13 23 6 6 13 11 22 15 8 4 18 6 28 6 9 0 17-2 24-4 7-3 14-6 20-11 7-4 12-9 18-15 5-5 11-11 16-18 5 6 10 12 15 18 6 6 12 11 18 15 6 5 13 8 20 11 7 2 15 4 24 4 10 0 20-2 28-6 8-4 16-9 21-15 6-6 11-14 14-23 3-8 5-18 5-28 0-11-2-20-5-29z"/>
<glyph glyph-name="social-adobe" unicode="&#57430;" d="M304 419l136-326 0 326z m-232 0l0-326 136 326z m124-261l64 0 26-65 57 0-87 206z"/>
<glyph glyph-name="social-amazon" unicode="&#57431;" d="M266 328c-22-2-44-4-65-11-44-13-67-43-66-87 0-39 23-65 63-70 25-2 49 2 70 19 6 5 11 10 17 14 8-9 16-18 25-27 5-6 10-6 16-1 11 10 22 19 33 29 6 5 7 9 1 15-12 15-17 32-17 51 1 35 1 70 0 104-1 27-15 47-39 58-38 16-76 16-113-1-26-11-41-31-47-58-2-9 0-12 9-13 13-2 26-4 39-5 7-1 11 1 13 8 4 21 25 32 45 29 13-2 23-10 25-22 1-10 1-21 2-31-2 0-3-1-3-1-3 0-5 0-8 0z m-1-101c-6-10-14-17-26-19-19-3-33 9-34 29-2 27 12 45 38 50 11 2 22 3 33 4 0-23 2-45-11-64z m121-78c-2-1-4-1-5-2-26-11-51-19-78-25-26-5-51-7-77-5-32 3-61 13-90 28-18 9-35 18-53 28-6 3-11 2-14-2-3-4-2-10 3-14 18-13 35-28 54-41 35-24 73-38 123-38 40 1 85 14 126 38 7 4 14 9 21 14 6 4 7 9 4 14-3 5-8 7-14 5z m38 39c-19 2-38 0-55-12-4-3-6-7-4-12 2-4 6-5 11-4 8 1 17 2 26 3 0 0 0 0 0 0 3 0 6 0 9 0 4 0 6-2 5-6-1-4-2-8-3-13-2-8-6-15-8-23 0-3 0-7 2-9 2-1 6-2 9-1 2 0 4 2 6 4 13 14 20 30 22 49 2 18-1 22-20 24z"/>
<glyph glyph-name="social-android" unicode="&#57432;" d="M310 419l18 32c1 1 0 3-2 4-1 1-4 1-4-1l-18-32c-14 7-31 10-48 10-17 0-34-3-48-10l-18 32c-1 2-3 2-4 1-2-1-3-3-2-4l18-32c-34-17-57-50-57-89l222 0c0 39-23 72-57 89z m-105-48c-5 0-9 4-9 9 0 5 4 9 9 9 6 0 10-4 10-9 0-5-4-9-10-9z m102 0c-6 0-10 4-10 9 0 5 4 9 10 9 5 0 9-4 9-9 0-5-4-9-9-9z m118-69c0 14-11 25-25 25-13 0-24-12-24-25l0-103c0-14 11-25 24-25 14 0 25 11 25 25z m-59 20l-220 0 0-160c0-4 1-8 3-12 4-8 13-14 23-14l18 0 0-55c0-2 0-3 1-5 2-11 12-20 24-20 1 0 3 0 5 1 11 2 19 12 19 24l0 55 34 0 0-55c0-12 8-22 19-24 2 0 4-1 5-1 14 0 25 11 25 25l0 55 18 0c5 0 9 1 13 3 8 5 13 13 13 23z m-254 5c-14 0-25-12-25-25l0-103c0-9 4-17 11-21 4-3 9-4 14-4 12 0 22 8 24 20 0 1 0 3 0 5l0 103c0 13-11 25-24 25z"/>
<glyph glyph-name="social-apple" unicode="&#57433;" d="M420 323c-21 27-51 42-79 42-37 0-52-18-78-18-26 0-46 18-78 18-32 0-65-19-87-52-29-46-24-132 24-206 17-26 40-56 71-56 26 0 34 17 70 18 37 0 44-18 71-18 30 1 54 33 71 60 13 18 17 28 27 49-70 27-81 125-12 163z m-107 71c14 18 24 42 20 67-22-2-47-16-62-34-14-16-25-41-21-65 24 0 49 14 63 32z"/>
<glyph glyph-name="social-behance" unicode="&#57434;" d="M329 224c-17 0-23-13-24-19l44 0c0 4-1 9-6 14-3 3-8 5-14 5z m-116-24c0 0 0 0 0 0l-42 0 0-36 40 0c7 0 16 3 16 18 0 18-12 18-14 18z m192 240l-297 0c-16 0-30-11-35-25l0-318c4-13 15-22 27-25l312 0c12 3 23 12 27 24l0 320c-5 14-19 24-34 24z m-112-156c0 2 1 3 3 3l64 0c1 0 2-1 2-3l0-19c0-1-1-2-2-2l-64 0c-2 0-3 1-3 2z m-27-105c0-25-13-36-24-42-11-6-24-6-27-6l-81 0c-1 0-3 1-3 2l0 155c0 1 2 2 3 2l80 0c29 0 47-16 47-43 0-17-8-25-16-29 4-1 8-4 11-7 11-12 10-31 10-32z m119 2c0-1-1-2-2-2l-78 0c1-9 4-15 10-18 6-4 12-4 14-4 0 0 1 0 1 0 9 0 15 2 19 6 3 4 3 8 3 8 0 1 0 1 1 2 0 0 1 1 2 1l27 0c1 0 3-1 3-3 0-41-45-44-54-44-1 0-2 0-2 0 0 0 0 0 0 0-20 0-36 6-47 18-17 18-15 43-15 44 0 1 0 16 8 31 7 14 22 31 54 31 18 0 33-6 43-17 17-20 14-52 13-53z m-163 64c0 13-8 14-9 14l-42 0 0-30 39 0c6 0 12 1 12 16z"/>
<glyph glyph-name="social-bing" unicode="&#57435;" d="M356 224c0 38-44 69-99 69-55 0-99-31-99-69 0-39 44-70 99-70 55 0 99 31 99 70z m39 92c-36 25-82 37-126 40-52 0-103-7-149-39l0 99-58 0 0-179c0-75 50-108 115-132 24-6 50-9 79-9 28 0 54 3 78 9 23 6 44 15 61 25 17 10 30 23 40 36 9 14 14 29 14 45 7 53-30 88-54 105z m-122-188c-65-2-141 18-149 94-4 42 38 96 132 99 38 1 128-20 134-93 4-44-52-98-117-100z"/>
<glyph glyph-name="social-blogger" unicode="&#57436;" d="M380 440l-247 0c-34 0-61-27-61-61l0-246c0-34 27-61 61-61l247 0c33 0 60 27 60 61l0 246c0 34-27 61-60 61z m-12-225c0-39-32-71-72-71l-82 0c-39 0-71 32-71 71l0 83c0 40 32 72 71 72l50 0c19-2 46-18 55-39 3-6 5-7 7-24 1-9 2-16 6-20 5-5 26-1 30-5l4-2 2-4 0-3z m-153 69l40 0c7 0 14 6 14 14 0 7-7 13-14 13l-40 0c-7 0-13-6-13-13 0-8 6-14 13-14z m81-54l-81 0c-7 0-13-6-13-14 0-7 6-13 13-13l81 0c7 0 13 6 13 13 0 8-6 14-13 14z"/>
<glyph glyph-name="social-delicious" unicode="&#57437;" d="M256 256l0 174-174 0 0-174 174 0 0-174 174 0 0 174z"/>
<glyph glyph-name="social-designer-news" unicode="&#57438;" d="M342 318l1-81-47 76-3 5-28 0 0-128 31 0-1 78 50-78 28 0 0 128z m62 122l-296 0c-20 0-36-16-36-36l0-296c0-20 16-36 36-36l162 0-143 115 0 136 54 0c20 0 31-2 43-10 7-4 12-9 17-16 2-3 4-6 5-8l14-11 0 45 36 0 2-2 0-1 39-31 0 29 0 5 41 0 0 0 62-50 0 131c0 20-16 36-36 36z m-195-125c-7 2-15 3-25 3-1 0-2 0-3 0l-43 0 0-128 50 0c37 0 61 26 61 64 0 16-4 29-12 40-1 1-2 2-3 4-1 0-1 1-2 2 0 0-1 1-1 1-1 1-1 1-2 2-1 1-1 1-2 2-1 0-1 1-2 1-1 1-2 2-4 3-1 1-2 1-4 2-1 1-2 1-3 2 0 0-1 0-1 0-1 1-2 1-4 2z m7-62c0-22-11-34-31-34l-14 0 0 70 14 0c20 0 31-13 31-36z"/>
<glyph glyph-name="social-deviant-art" unicode="&#57439;" d="M237 283c11 4 38 9 57 6l24-50 67 16c4 0 5 5 0 9-42 34-83 41-165 23l49-101-169-48 0-31c0-1 0-2 1-2 1-1 2-2 3-2l303 0c1 0 2 1 3 2 1 0 1 1 1 2l0 118-129-35c0 0-36 73-45 93z m170 129l-303 0c-1 0-2 0-2-1-2 0-2-2-2-3l0-132c6 5 30 23 54 30l-20 46 56 0c0 0 15-32 15-33 20 7 118 22 205-15l1-1 0 105c0 1-1 3-2 3 0 1-1 1-2 1z m-268-217c13 3 61 16 61 16l-31 63c-9-2-44-18-42-73 0 0 0-9 12-6z m271 245l-308 0c-17 0-30-14-30-31l0-306c0-17 13-31 30-31l308 0c17 0 30 14 30 31l0 306c0 17-13 31-30 31z m11-333c0-7-6-14-14-14l-303 0c-8 0-14 7-14 14l0 301c0 8 6 14 14 14l303 0c8 0 14-6 14-14z"/>
<glyph glyph-name="social-digg" unicode="&#57440;" d="M474 317c0 2 0 4 0 6-2 0-4 0-5 0-36 0-71 0-107 0-4 0-5-1-5-5 0-40 0-80 0-120 0-5 1-6 6-6 20 1 40 0 61 0 1 0 3 0 5 0 0-6 0-11 0-16 0-4-1-5-5-5-20 0-41 0-62 0-4 0-5-1-5-5 0-8 0-15 0-23 0-4 1-5 5-5 36 0 71 0 106 0 5 0 6 2 6 6 0 58 0 115 0 173z m-49-92c-6 0-13 0-19 0-3 0-4 1-4 4 0 19 0 38 0 57 0 2 1 4 2 4 8 0 16 0 25 0 0-4 0-7 0-11 0-17 0-33 0-49 0-4-1-5-4-5z m-87 98c-35 0-71 0-106 0-4 0-5-1-5-5 0-40 0-80 0-120 0-4 1-6 5-6 20 1 41 0 61 1 5 0 6-2 6-6 0-4 0-8 0-11 0-4-1-5-5-5-20 0-41 0-62 0-1 0-3 0-5 0 0-10 0-19 0-28 0-4 1-5 5-5 35 0 71 0 106 0 2 0 3 0 5 0 0 2 0 4 0 5 0 58 0 117 1 175 0 4-2 5-6 5z m-39-95c0-1-2-3-3-3-7 0-15 0-22 0-1 0-2 2-2 3-1 20 0 41 0 62 8 0 16 0 24 0 1 0 3-2 3-3 0-19 0-39 0-59z m-189 141c0-13 0-26 0-40 0-6 0-6-6-6-21 0-41 0-61 0-4 0-5-1-5-5 0-44 0-88 0-132 0-4 1-5 5-5 36 0 71 0 107 0 1 0 3 0 4 0 0 65 0 129 0 193-14 0-29 0-44 0 0-2 0-4 0-5z m-5-155c-6 0-12 0-18 0-2 0-4 1-4 2 0 25 0 49 0 74 9 0 18 0 27 0 0-2 0-3 0-5 0-22 0-44 0-66 0-4-1-6-5-5z m104 109c-12 0-24 0-36 0-4 0-4-1-4-5 0-13 0-25 0-38 0-31 0-63 0-94 0-4 0-5 4-5 5 0 10 0 14 0 9 0 17 0 26 0 0 1 0 2 0 2 0 46 0 91 0 137 0 3-1 3-4 3z m-37 17c13 0 25 0 38 0 2 0 3 1 3 4 0 4 0 8 0 13 0 5 0 11 0 17-15 0-29 0-44 0 0-11 0-21 0-31 0-1 2-3 3-3z"/>
<glyph glyph-name="social-dribbble" unicode="&#57441;" d="M256 442c-102 0-186-84-186-186 0-102 84-186 186-186 102 0 186 84 186 186 0 102-84 186-186 186z m123-86c22-27 35-61 35-99-5 1-57 12-110 5-1 3-2 6-3 9-4 7-7 15-11 22 59 24 85 58 89 63z m-123 58c40 0 77-15 105-40-3-4-27-36-83-57-26 48-55 87-59 93 12 3 24 4 37 4z m-67-15c4-6 32-45 58-91-74-20-139-20-146-20 10 49 43 90 88 111z m-91-143c0 1 0 3 0 5 7-1 83-2 162 22 5-9 9-18 13-27-2 0-4-1-6-2-82-26-125-98-129-104-25 28-40 65-40 106z m158-159c-37 0-70 13-97 34 3 6 35 68 124 99 0 0 1 0 1 0 22-58 32-106 34-120-19-8-40-13-62-13z m89 27c-2 10-11 56-31 113 49 8 93-5 98-6-7-44-32-83-67-107z"/>
<glyph glyph-name="social-drive" unicode="&#57442;" d="M208 207l-67-115 240 0 67 115z m232 6l-120 208-133 1 121-208z m-256 200l-120-208 66-115 120 208z"/>
<glyph glyph-name="social-dropbox" unicode="&#57443;" d="M174 440l-116-76 80-64 118 72z m-116-205l116-76 82 68-118 73z m198-8l82-68 116 76-80 65z m198 137l-116 76-82-68 118-72z m-198-152l-82-68-35 23 0-25 117-70 117 70 0 25-35-23z"/>
<glyph glyph-name="social-evernote" unicode="&#57444;" d="M122 379c0 0 0 0 0 0l38 0c2 0 4 1 4 3 0 0-1 33-1 42l0 0c0 7 2 13 4 19l2 2c-1 0-1 0-1 0l-73-72c0-1 0-1 0-1 1 1 4 2 4 2 6 3 14 5 23 5z m292 7c-3 16-12 24-21 27-9 4-28 7-51 10-19 2-42 2-55 2-2 11-10 21-18 24-23 10-59 7-68 5-8-2-16-7-20-13-3-4-5-10-5-17 0-5 0-15 0-24 0-9 0-18 0-18 0-8-6-14-15-14l-37 0c-8 0-14-2-19-4-5-2-8-5-10-8-5-7-6-15-6-24 0 0 0-7 1-20 2-10 13-83 24-105 4-9 7-12 15-16 18-8 59-16 79-19 19-2 31-7 39 8 0 0 1 3 3 9 6 19 7 36 7 48 0 1 2 2 2 0 0-8-2-39 21-47 10-3 28-6 48-9 17-2 30-8 30-53 0-27-6-31-36-31-24 0-33-1-33 19 0 15 15 14 27 14 5 0 1 3 1 13 0 9 6 15 0 15-39 1-62 0-62-49 0-45 17-53 73-53 43 0 59 1 77 57 4 12 12 45 17 102 4 36-3 144-8 171z m-76-119c-5 0-11 0-16-1 2 11 6 24 22 24 18-1 21-18 21-29-8 3-17 5-27 6z"/>
<glyph glyph-name="social-facebook" unicode="&#57445;" d="M420 440l-328 0c-11 0-20-9-20-20l0-328c0-11 9-20 20-20l177 0 0 142-48 0 0 56 48 0 0 41c0 48 29 74 71 74 20 0 38-2 43-3l0-49-29 0c-23 0-28-11-28-27l0-36 55 0-7-56-48 0 0-142 94 0c11 0 20 9 20 20l0 328c0 11-9 20-20 20z"/>
<glyph glyph-name="social-flickr" unicode="&#57446;" d="M404 440l-296 0c-20 0-36-16-36-36l0-296c0-20 16-36 36-36l296 0c20 0 36 16 36 36l0 296c0 20-16 36-36 36z m-223-243c-33 0-59 27-59 60 0 33 26 60 59 60 33 0 60-27 60-60 0-33-27-60-60-60z m152 0c-33 0-60 27-60 60 0 33 27 60 60 60 33 0 60-27 60-60 0-33-27-60-60-60z"/>
<glyph glyph-name="social-forrst" unicode="&#57447;" d="M431 46l-175 420-175-419 147 0 0 86-44 31 11 16 33-23 0 67 46 0 0-43 33 18 10-18-43-22 0-25 64 33 9-18-73-36 0-66 92 0 0-1z"/>
<glyph glyph-name="social-foursquare" unicode="&#57448;" d="M185 303c-2 3-6 4-9 4-4 0-7-1-10-4l-32-32c-6-5-6-14 0-19l109-110c3-2 5-4 8-4 1 0 1 0 2 0 0 0 0 0 0 0l0 0c4 0 7 1 10 4l196 197c6 5 6 14 0 19l-32 32c-3 3-6 4-10 4-3 0-7-1-9-4l-155-154z m262-12l-166-166c-7-8-17-11-27-11l-7 0-2 1c-7 1-13 5-18 10l-110 109c-7 8-11 17-11 27 0 10 4 20 11 27l33 32c7 7 17 12 27 12 10 0 19-5 26-12l51-50 107 107-71 72c-19 18-50 18-69 0l-158-159c-19-19-19-49 0-68l158-159c19-18 50-18 69 0l158 159c19 19 19 49 0 68z"/>
<glyph glyph-name="social-game-center" unicode="&#57449;" d="M404 440l-296 0c-20 0-36-16-36-36l0-296c0-20 16-36 36-36l296 0c20 0 36 16 36 36l0 296c0 20-16 36-36 36z m-118-26c55 0 99-45 99-99 0-21-6-41-18-57-14 12-33 19-53 19-34 0-63-19-77-47-30 17-49 48-49 85 0 54 44 99 98 99z m-184-142c0 59 44 108 102 115-17-19-27-44-27-72 0-41 22-77 55-96-1-3-2-7-3-11-6 1-11 2-18 2-25 0-46-15-55-36-33 20-54 56-54 98z m109-175c-28 0-52 23-52 52 0 29 24 52 52 52 29 0 53-23 53-52 0-29-24-52-53-52z m103 17c-17 0-32 5-45 14 2 7 4 14 4 21 0 24-14 45-34 55 6 36 37 63 75 63 42 0 76-35 76-77 0-42-34-76-76-76z"/>
</font>
</defs>
</svg>
